<svg width="14" height="14" viewBox="0 0 14 14" fill="none" xmlns="http://www.w3.org/2000/svg">
<path d="M4.30317 12.565L12.5662 4.30303C12.9466 3.92258 13.1604 3.40658 13.1604 2.86853C13.1604 2.33049 12.9466 1.81449 12.5662 1.43403C12.3778 1.24565 12.1541 1.09622 11.908 0.994269C11.6619 0.892317 11.3981 0.839844 11.1317 0.839844C10.5936 0.839844 10.0776 1.05358 9.69717 1.43403L1.43517 9.69703C1.05747 10.0779 0.84605 10.5929 0.847172 11.1293C0.848295 11.6657 1.06187 12.1798 1.44116 12.559C1.82044 12.9383 2.33454 13.1519 2.87093 13.153C3.40731 13.1542 3.9223 12.9427 4.30317 12.565Z" fill="white"/>
<path d="M1.43496 4.30296L9.69796 12.566C10.0784 12.9463 10.5944 13.1599 11.1323 13.1598C11.6703 13.1597 12.1861 12.9459 12.5665 12.5655C12.9468 12.185 13.1604 11.6691 13.1603 11.1311C13.1602 10.5932 12.9464 10.0773 12.566 9.69696L4.30296 1.43496C4.11493 1.24535 3.8913 1.09474 3.64492 0.991778C3.39853 0.888814 3.13424 0.835524 2.8672 0.834965C2.60017 0.834407 2.33565 0.886591 2.08884 0.988522C1.84202 1.09045 1.61777 1.24013 1.42895 1.42895C1.24013 1.61777 1.09045 1.84202 0.988522 2.08884C0.886591 2.33565 0.834407 2.60017 0.834965 2.8672C0.835524 3.13424 0.888814 3.39853 0.991778 3.64492C1.09474 3.8913 1.24535 4.11493 1.43496 4.30296Z" fill="white"/>
</svg>
