<svg width="22" height="22" viewBox="0 0 22 22" fill="none" xmlns="http://www.w3.org/2000/svg">
<g clip-path="url(#clip0_213_3167)" filter="url(#filter0_d_213_3167)">
<path d="M8.30317 12.565L16.5662 4.30303C16.9466 3.92258 17.1604 3.40658 17.1604 2.86853C17.1604 2.33049 16.9466 1.81449 16.5662 1.43403C16.3778 1.24565 16.1541 1.09622 15.908 0.994269C15.6619 0.892317 15.3981 0.839844 15.1317 0.839844C14.5936 0.839844 14.0776 1.05358 13.6972 1.43403L5.43517 9.69703C5.05747 10.0779 4.84605 10.5929 4.84717 11.1293C4.8483 11.6657 5.06187 12.1798 5.44116 12.559C5.82044 12.9383 6.33454 13.1519 6.87093 13.153C7.40731 13.1542 7.9223 12.9427 8.30317 12.565Z" fill="#808080"/>
<path d="M5.43496 4.30296L13.698 12.566C14.0784 12.9463 14.5944 13.1599 15.1323 13.1598C15.6703 13.1597 16.1861 12.9459 16.5665 12.5655C16.9468 12.185 17.1604 11.6691 17.1603 11.1311C17.1602 10.5932 16.9464 10.0773 16.566 9.69696L8.30296 1.43496C8.11493 1.24535 7.8913 1.09474 7.64492 0.991778C7.39853 0.888814 7.13424 0.835524 6.8672 0.834965C6.60017 0.834407 6.33565 0.886591 6.08884 0.988522C5.84202 1.09045 5.61777 1.24013 5.42895 1.42895C5.24013 1.61777 5.09045 1.84202 4.98852 2.08884C4.88659 2.33565 4.83441 2.60017 4.83497 2.8672C4.83552 3.13424 4.88881 3.39853 4.99178 3.64492C5.09474 3.8913 5.24535 4.11493 5.43496 4.30296Z" fill="#808080"/>
</g>
<defs>
<filter id="filter0_d_213_3167" x="0" y="0" width="22" height="22" filterUnits="userSpaceOnUse" color-interpolation-filters="sRGB">
<feFlood flood-opacity="0" result="BackgroundImageFix"/>
<feColorMatrix in="SourceAlpha" type="matrix" values="0 0 0 0 0 0 0 0 0 0 0 0 0 0 0 0 0 0 127 0" result="hardAlpha"/>
<feOffset dy="4"/>
<feGaussianBlur stdDeviation="2"/>
<feComposite in2="hardAlpha" operator="out"/>
<feColorMatrix type="matrix" values="0 0 0 0 0 0 0 0 0 0 0 0 0 0 0 0 0 0 0.25 0"/>
<feBlend mode="normal" in2="BackgroundImageFix" result="effect1_dropShadow_213_3167"/>
<feBlend mode="normal" in="SourceGraphic" in2="effect1_dropShadow_213_3167" result="shape"/>
</filter>
<clipPath id="clip0_213_3167">
<rect width="14" height="14" fill="white" transform="translate(4)"/>
</clipPath>
</defs>
</svg>
