<svg width="20" height="20" viewBox="0 0 20 20" fill="none" xmlns="http://www.w3.org/2000/svg">
<g clip-path="url(#clip0_204_3173)">
<path d="M5 0C3.62109 0 2.5 1.12109 2.5 2.5V6.25H5V2.5H13.8555L15 3.64453V6.25H17.5V3.64453C17.5 2.98047 17.2383 2.34375 16.7695 1.875L15.625 0.730469C15.1562 0.261719 14.5195 0 13.8555 0H5ZM15 13.75V15V17.5H5V15V14.375V13.75H15ZM17.5 15H18.75C19.4414 15 20 14.4414 20 13.75V10C20 8.62109 18.8789 7.5 17.5 7.5H2.5C1.12109 7.5 0 8.62109 0 10V13.75C0 14.4414 0.558594 15 1.25 15H2.5V17.5C2.5 18.8789 3.62109 20 5 20H15C16.3789 20 17.5 18.8789 17.5 17.5V15ZM16.875 9.6875C17.1236 9.6875 17.3621 9.78627 17.5379 9.96209C17.7137 10.1379 17.8125 10.3764 17.8125 10.625C17.8125 10.8736 17.7137 11.1121 17.5379 11.2879C17.3621 11.4637 17.1236 11.5625 16.875 11.5625C16.6264 11.5625 16.3879 11.4637 16.2121 11.2879C16.0363 11.1121 15.9375 10.8736 15.9375 10.625C15.9375 10.3764 16.0363 10.1379 16.2121 9.96209C16.3879 9.78627 16.6264 9.6875 16.875 9.6875Z" fill="black"/>
</g>
<defs>
<clipPath id="clip0_204_3173">
<rect width="20" height="20" fill="white"/>
</clipPath>
</defs>
</svg>
