<svg width="18" height="20" viewBox="0 0 18 20" fill="none" xmlns="http://www.w3.org/2000/svg">
<g clip-path="url(#clip0_205_3175)">
<path d="M13.75 8.75C15.8203 8.75 17.5 7.07031 17.5 5C17.5 2.92969 15.8203 1.25 13.75 1.25C11.6797 1.25 10 2.92969 10 5C10 5.15625 10.0078 5.3125 10.0273 5.46484L6.35156 7.30078C5.67969 6.64844 4.76172 6.25 3.75 6.25C1.67969 6.25 0 7.92969 0 10C0 12.0703 1.67969 13.75 3.75 13.75C4.76172 13.75 5.67969 13.3516 6.35156 12.6992L10.0273 14.5352C10.0078 14.6875 10 14.8398 10 15C10 17.0703 11.6797 18.75 13.75 18.75C15.8203 18.75 17.5 17.0703 17.5 15C17.5 12.9297 15.8203 11.25 13.75 11.25C12.7383 11.25 11.8203 11.6484 11.1484 12.3008L7.47266 10.4648C7.49219 10.3125 7.5 10.1602 7.5 10C7.5 9.83984 7.49219 9.6875 7.47266 9.53516L11.1484 7.69922C11.8203 8.35156 12.7383 8.75 13.75 8.75Z" fill="black"/>
</g>
<defs>
<clipPath id="clip0_205_3175">
<rect width="17.5" height="20" fill="white"/>
</clipPath>
</defs>
</svg>
