<svg width="59" height="58" viewBox="0 0 59 58" fill="none" xmlns="http://www.w3.org/2000/svg">
                  <path d="M18.3 27.2a6 6 0 0 0 6-6.1 6 6 0 0 0-6-6.1 6 6 0 0 0-6 6 6 6 0 0 0 6 6.2ZM18.3 44a6 6 0 0 0 6-6 6 6 0 0 0-6-6.2 6 6 0 0 0-6 6.1 6 6 0 0 0 6 6.1ZM34.2 27.2a6 6 0 0 0 6-6.1 6 6 0 0 0-6-6.1 6 6 0 0 0-6 6 6 6 0 0 0 6 6.2Z" fill="#47abd7"></path>
                  <path d="M34.2 44a6 6 0 0 0 6-6 6 6 0 0 0-6-6.2 6 6 0 0 0-6 6.1 6 6 0 0 0 6 6.1Z" fill="#aee7ff"></path>
                </svg>