<svg width="59" height="58" viewBox="0 0 59 58" fill="none" xmlns="http://www.w3.org/2000/svg">
                      <path d="M26.18 30.07h6.33v2.13h-6.33v-2.13Z" fill="#47abd7"></path>
                      <path d="M40.55 32.2h-5.98v1.07a1.04 1.04 0 0 1-1.06 1h-8.43c-.27.02-.53-.09-.72-.28-.2-.18-.32-.44-.33-.72v-1.06h-5.98a3.14 3.14 0 0 1-3-2.2l-3.78-11.5v23.3a3.23 3.23 0 0 0 1.96 2.95c.38.16.8.24 1.21.24H44.1a3.13 3.13 0 0 0 2.93-1.97c.16-.39.24-.8.24-1.23V18.5L43.47 30a3.2 3.2 0 0 1-2.92 2.2Z" fill="#47abd7"></path>
                      <path d="M33.57 13h-8.44a3.13 3.13 0 0 0-2.92 1.97c-.16.39-.24.8-.24 1.23v1.07h-8.8l3.98 12.1a1.08 1.08 0 0 0 1 .73h5.93V29a1.06 1.06 0 0 1 1.06-1.07h8.44c.28 0 .55.11.74.31.2.2.31.48.31.76v1.07h5.98a.99.99 0 0 0 1-.74l3.99-12.1h-8.8V16.2a3.24 3.24 0 0 0-2-2.97c-.4-.16-.81-.24-1.23-.23Zm-9.5 4.27V16.2c0-.29.12-.56.32-.76.2-.2.46-.31.74-.31h8.44c.28 0 .55.11.74.31.2.2.31.47.31.76v1.07H24.08Z" fill="#47abd7"></path>
                    </svg>