<svg width="59" height="58" viewBox="0 0 59 58" fill="none" xmlns="http://www.w3.org/2000/svg">
<path d="M22 9C23.0391 9 23.875 9.83594 23.875 10.875V14H35.125V10.875C35.125 9.83594 35.9609 9 37 9C38.0391 9 38.875 9.83594 38.875 10.875V14H42C44.7578 14 47 16.2422 47 19V20.25V24H12V20.25V19C12 16.2422 14.2422 14 17 14H20.125V10.875C20.125 9.83594 20.9609 9 22 9Z" fill="black"/>
<path d="M12 24H47V44C47 46.7614 44.7614 49 42 49H17C14.2386 49 12 46.7614 12 44V24Z" fill="#AEE7FF"/>
<path d="M24 34.1307L28.2957 39L38 28" stroke="white" stroke-width="2.09" stroke-linecap="round"/>
</svg>
