<svg width="59" height="58" viewBox="0 0 59 58" fill="none" xmlns="http://www.w3.org/2000/svg">
<path d="M14.0862 25.543L29.3448 14.2388L44.6034 25.543V29.3111L32.0071 38.6519C31.2363 39.2242 30.3064 39.5263 29.3448 39.5263C28.3832 39.5263 27.4534 39.2163 26.6825 38.6519L14.0862 29.3111V25.543ZM29.3448 9C28.3832 9 27.4534 9.31003 26.6825 9.87445L11.0583 21.457C9.76293 22.4189 9 23.9293 9 25.543V44.614C9 47.4202 11.2808 49.7018 14.0862 49.7018H44.6034C47.4088 49.7018 49.6897 47.4202 49.6897 44.614V25.543C49.6897 23.9293 48.9267 22.4109 47.6313 21.457L32.0071 9.87445C31.2363 9.31003 30.3064 9 29.3448 9Z" fill="black"/>
<path d="M30.3446 30.5729C30.0002 30.9704 29.6134 31.291 29.1843 31.5348C28.7604 31.7733 28.3339 31.8925 27.9048 31.8925C27.4332 31.8925 26.9749 31.7548 26.5299 31.4792C26.0849 31.2036 25.7219 30.7796 25.4411 30.2072C25.1656 29.6349 25.0279 29.0069 25.0279 28.3232C25.0279 27.4805 25.2425 26.6379 25.6716 25.7952C26.1061 24.9473 26.6438 24.3113 27.2849 23.8873C27.926 23.4634 28.5485 23.2514 29.1525 23.2514C29.6134 23.2514 30.0532 23.3733 30.4717 23.6171C30.8903 23.8555 31.2505 24.2212 31.5525 24.7141L31.8227 23.4819H33.2453L32.1009 28.8161C31.9419 29.558 31.8625 29.9688 31.8625 30.0482C31.8625 30.1913 31.9155 30.3159 32.0214 30.4219C32.1327 30.5226 32.2651 30.5729 32.4188 30.5729C32.6996 30.5729 33.0678 30.4113 33.5234 30.088C34.1274 29.664 34.6043 29.0969 34.9539 28.3868C35.3089 27.6713 35.4864 26.9347 35.4864 26.1768C35.4864 25.2918 35.2586 24.465 34.8029 23.6965C34.3526 22.9281 33.6771 22.3133 32.7764 21.8522C31.881 21.3912 30.8903 21.1606 29.8041 21.1606C28.5644 21.1606 27.4306 21.4521 26.4027 22.0351C25.3802 22.6128 24.5855 23.4448 24.0186 24.5313C23.457 25.6124 23.1762 26.773 23.1762 28.0132C23.1762 29.3116 23.457 30.4298 24.0186 31.3679C24.5855 32.3059 25.4014 32.9975 26.4663 33.4427C27.5365 33.8932 28.7207 34.1184 30.0187 34.1184C31.4068 34.1184 32.5698 33.8852 33.5075 33.4189C34.4453 32.9525 35.1473 32.3854 35.6136 31.7177H37.052C36.7818 32.2741 36.3182 32.8412 35.6612 33.4189C35.0043 33.9965 34.2228 34.4523 33.3168 34.7862C32.4108 35.1254 31.3194 35.295 30.0426 35.295C28.8664 35.295 27.7803 35.1439 26.7842 34.8418C25.7935 34.5397 24.9484 34.084 24.2491 33.4745C23.5497 32.8703 23.0225 32.1734 22.6676 31.3838C22.2225 30.3821 22 29.301 22 28.1404C22 26.8472 22.2649 25.615 22.7947 24.4438C23.4411 23.0076 24.3577 21.9079 25.5445 21.1447C26.7365 20.3816 28.1803 20 29.8757 20C31.1896 20 32.3684 20.2703 33.4122 20.8109C34.4612 21.3461 35.2877 22.1464 35.8917 23.2116C36.4056 24.1285 36.6626 25.1248 36.6626 26.2007C36.6626 27.7376 36.1222 29.1022 35.0414 30.2947C34.0771 31.3652 33.0228 31.9005 31.8784 31.9005C31.5128 31.9005 31.2161 31.8448 30.9883 31.7336C30.7658 31.6223 30.6015 31.4633 30.4956 31.2566C30.4267 31.1241 30.3763 30.8962 30.3446 30.5729ZM26.4981 28.4186C26.4981 29.1446 26.6703 29.7091 27.0147 30.1118C27.3591 30.5146 27.7538 30.716 28.1988 30.716C28.4955 30.716 28.8081 30.6286 29.1366 30.4537C29.4651 30.2735 29.7777 30.0085 30.0744 29.6587C30.3763 29.3089 30.6227 28.8664 30.8134 28.3311C31.0042 27.7906 31.0995 27.25 31.0995 26.7094C31.0995 25.9887 30.9194 25.4296 30.5591 25.0321C30.2042 24.6346 29.7697 24.4359 29.2558 24.4359C28.9167 24.4359 28.5962 24.5233 28.2942 24.6982C27.9975 24.8678 27.7087 25.1434 27.4279 25.5249C27.1471 25.9065 26.922 26.3702 26.7524 26.9161C26.5829 27.462 26.4981 27.9628 26.4981 28.4186Z" fill="black"/>
</svg>
