<svg width="58" height="58" viewBox="0 0 58 58" fill="none" xmlns="http://www.w3.org/2000/svg">
                  <path d="M28.5 48C38.7173 48 47 39.7173 47 29.5C47 19.2827 38.7173 11 28.5 11C18.2827 11 10 19.2827 10 29.5C10 39.7173 18.2827 48 28.5 48Z" fill="#47abd7"></path>
                  <path d="M32.7799 27.6297L32.4999 30.0898C32.4875 30.2029 32.4337 30.3074 32.3487 30.3831C32.2637 30.4589 32.1537 30.5004 32.0399 30.4997H29.4699V37.7997C29.4701 37.8865 29.437 37.9701 29.3775 38.0334C29.318 38.0966 29.2366 38.1346 29.1499 38.1397H26.5499C26.5079 38.1397 26.4663 38.1315 26.4274 38.1154C26.3886 38.0993 26.3534 38.0757 26.3236 38.046C26.2939 38.0163 26.2704 37.981 26.2543 37.9422C26.2382 37.9033 26.2299 37.8618 26.2299 37.8197V30.4997H24.2999C24.1779 30.4997 24.0609 30.4513 23.9746 30.365C23.8884 30.2788 23.8399 30.1617 23.8399 30.0397V27.5697C23.8399 27.4477 23.8884 27.3307 23.9746 27.2445C24.0609 27.1582 24.1779 27.1097 24.2999 27.1097H26.2399V24.7297C26.2399 21.9697 27.8699 20.4697 30.2399 20.4697H32.2399C32.3012 20.4697 32.3618 20.4819 32.4183 20.5056C32.4748 20.5294 32.5259 20.5642 32.5688 20.608C32.6116 20.6518 32.6453 20.7036 32.6678 20.7606C32.6903 20.8176 32.7012 20.8785 32.6999 20.9397V22.9997C32.7012 23.0601 32.6906 23.1202 32.6687 23.1765C32.6468 23.2329 32.6141 23.2843 32.5723 23.328C32.5305 23.3716 32.4805 23.4066 32.4252 23.4309C32.3699 23.4553 32.3103 23.4684 32.2499 23.4697H30.9999C29.6899 23.4697 29.4399 24.1097 29.4399 25.0397V27.0997H32.2999C32.3612 27.0997 32.4218 27.1119 32.4783 27.1357C32.5348 27.1594 32.5859 27.1942 32.6288 27.2379C32.6716 27.2817 32.7053 27.3336 32.7278 27.3906C32.7503 27.4476 32.7612 27.5085 32.7599 27.5697L32.7799 27.6297Z" fill="#ffffff"></path>
                </svg>