<svg width="59" height="58" viewBox="0 0 59 58" fill="none" xmlns="http://www.w3.org/2000/svg">
<path fill-rule="evenodd" clip-rule="evenodd" d="M40.5 25.25C40.5 30.3711 33.6445 39.4883 30.6387 43.25C29.918 44.1465 28.582 44.1465 27.8613 43.25C24.8555 39.4883 18 30.3711 18 25.25C18 19.0391 23.0391 14 29.25 14C35.4609 14 40.5 19.0391 40.5 25.25ZM29.6949 19.0398C29.5318 19.014 29.3816 19 29.25 19C29.2167 19 29.1814 19.0006 29.1443 19.0017C29.0963 19.0006 29.0482 19 29 19C27.9546 19 26.9717 19.2673 26.1159 19.7374C25.458 20.0423 24.8632 20.4552 24.5 21C24.296 21.204 24.0842 21.4999 23.8863 21.86C23.3242 22.7734 23 23.8488 23 25C23 25.0423 23.0004 25.0845 23.0013 25.1266C23.0004 25.1677 23 25.2089 23 25.25C23 25.3816 23.014 25.5318 23.0398 25.6949C23.1529 26.6751 23.5021 27.5833 24.0292 28.3612C24.1843 28.6228 24.3444 28.8444 24.5 29C24.5757 29.0757 24.6564 29.1514 24.7415 29.2267C25.8285 30.3219 27.3351 31 29 31C30.6835 31 32.2051 30.3066 33.2948 29.1898C33.3703 29.1246 33.439 29.061 33.5 29C34.5 28 35 26.2446 35 25.25C35.2542 24.3602 34.9147 23.3291 34.427 22.438C34.1274 21.8042 33.7199 21.2314 33.2284 20.7432C33.1443 20.6488 33.0672 20.5672 33 20.5C32.8444 20.3444 32.6228 20.1843 32.3613 20.0292C31.5833 19.5021 30.6751 19.1529 29.6949 19.0398Z" fill="black"/>
<path fill-rule="evenodd" clip-rule="evenodd" d="M29 31C32.3137 31 35 28.3137 35 25C35 21.6863 32.3137 19 29 19C25.6863 19 23 21.6863 23 25C23 28.3137 25.6863 31 29 31ZM29 29C31.2091 29 33 27.2091 33 25C33 22.7909 31.2091 21 29 21C26.7909 21 25 22.7909 25 25C25 27.2091 26.7909 29 29 29Z" fill="#AEE7FF"/>
<circle cx="29" cy="25" r="4" fill="white"/>
</svg>
