<svg width="59" height="58" viewBox="0 0 59 58" fill="none" xmlns="http://www.w3.org/2000/svg">
                  <path d="M32.2705 8H13.2705C9.9568 8 7.27051 10.6863 7.27051 14V33C7.27051 36.3137 9.9568 39 13.2705 39H32.2705C35.5842 39 38.2705 36.3137 38.2705 33V14C38.2705 10.6863 35.5842 8 32.2705 8Z" fill="#47abd7"></path>
                  <path d="M25.2706 20.0001H44.2706C45.8619 20.0001 47.3881 20.6323 48.5133 21.7575C49.6385 22.8827 50.2706 24.4088 50.2706 26.0001V45.0001C50.2706 46.5914 49.6385 48.1175 48.5133 49.2427C47.3881 50.368 45.8619 51.0001 44.2706 51.0001H25.2706C23.6793 51.0001 22.1532 50.368 21.028 49.2427C19.9028 48.1175 19.2706 46.5914 19.2706 45.0001V26.0001C19.2706 24.4088 19.9028 22.8827 21.028 21.7575C22.1532 20.6323 23.6793 20.0001 25.2706 20.0001Z" fill="#aee7ff"></path>
                  <path d="M28.151 27.6502C27.4978 27.6793 26.8798 27.9543 26.421 28.4201C26.2129 28.6255 26.0502 28.8722 25.9434 29.1444C25.8366 29.4165 25.7881 29.7081 25.801 30.0002C25.801 30.4649 25.9388 30.9193 26.197 31.3058C26.4553 31.6922 26.8223 31.9934 27.2517 32.1713C27.6811 32.3492 28.1536 32.3957 28.6095 32.305C29.0653 32.2143 29.484 31.9905 29.8127 31.6618C30.1413 31.3332 30.3652 30.9144 30.4558 30.4586C30.5465 30.0027 30.5 29.5303 30.3221 29.1009C30.1442 28.6715 29.843 28.3044 29.4566 28.0462C29.0701 27.788 28.6158 27.6502 28.151 27.6502Z" fill="#ffffff"></path>
                  <path d="M40.2705 33.2902C40.1764 33.0929 40.0442 32.9161 39.8815 32.77C39.7188 32.6239 39.5289 32.5114 39.3226 32.439C39.1163 32.3665 38.8978 32.3355 38.6795 32.3477C38.4612 32.36 38.2474 32.4152 38.0505 32.5103C37.8208 32.6202 37.619 32.7809 37.4605 32.9802L35.4605 35.9802C35.3471 36.1545 35.2005 36.3047 35.029 36.4221C34.8575 36.5396 34.6644 36.6221 34.461 36.6648C34.2575 36.7075 34.0477 36.7097 33.8434 36.6712C33.6391 36.6326 33.4444 36.5542 33.2705 36.4403C33.0887 36.3184 32.9324 36.1621 32.8105 35.9802L32.1905 35.2103C32.0629 35.0423 31.9033 34.9012 31.721 34.7951C31.5386 34.689 31.3371 34.6201 31.1279 34.5922C30.9188 34.5643 30.7062 34.578 30.5025 34.6326C30.2987 34.6872 30.1077 34.7815 29.9405 34.9102C29.7793 35.0328 29.6434 35.1857 29.5405 35.3602L26.0505 40.8502C25.9339 41.0298 25.854 41.2308 25.8155 41.4414C25.777 41.6521 25.7806 41.8682 25.8262 42.0775C25.8717 42.2867 25.9583 42.4849 26.081 42.6604C26.2036 42.836 26.3598 42.9854 26.5405 43.1002C26.8152 43.2822 27.1416 43.3699 27.4705 43.3502H42.1905C42.4096 43.3375 42.6239 43.2815 42.8212 43.1855C43.0184 43.0894 43.1946 42.9552 43.3397 42.7907C43.4848 42.6261 43.5958 42.4343 43.6663 42.2266C43.7368 42.0188 43.7654 41.7992 43.7505 41.5803C43.7396 41.3832 43.6922 41.1899 43.6105 41.0103L40.2705 33.2902Z" fill="#ffffff"></path>
                </svg>