<svg width="33" height="33" viewBox="0 0 33 33" fill="none" xmlns="http://www.w3.org/2000/svg">
<path d="M1 4C1 2.34315 2.34315 1 4 1H11C12.6569 1 14 2.34315 14 4V11C14 12.6569 12.6569 14 11 14H4C2.34315 14 1 12.6569 1 11V4Z" stroke="#47ABD7" stroke-width="2"/>
<path d="M19 22C19 20.3431 20.3431 19 22 19H29C30.6569 19 32 20.3431 32 22V29C32 30.6569 30.6569 32 29 32H22C20.3431 32 19 30.6569 19 29V22Z" stroke="#47ABD7" stroke-width="2"/>
<path d="M1 22C1 20.3431 2.34315 19 4 19H11C12.6569 19 14 20.3431 14 22V29C14 30.6569 12.6569 32 11 32H4C2.34315 32 1 30.6569 1 29V22Z" stroke="#47ABD7" stroke-width="2"/>
<path d="M5.5 25.5C5.5 24.3954 6.39543 23.5 7.5 23.5C8.60457 23.5 9.5 24.3954 9.5 25.5C9.5 26.6046 8.60457 27.5 7.5 27.5C6.39543 27.5 5.5 26.6046 5.5 25.5Z" fill="#47ABD7" stroke="#47ABD7"/>
<path d="M19 4C19 2.34315 20.3431 1 22 1H29C30.6569 1 32 2.34315 32 4V11C32 12.6569 30.6569 14 29 14H22C20.3431 14 19 12.6569 19 11V4Z" stroke="#47ABD7" stroke-width="2"/>
<path d="M23.5 7.5C23.5 6.39543 24.3954 5.5 25.5 5.5C26.6046 5.5 27.5 6.39543 27.5 7.5C27.5 8.60457 26.6046 9.5 25.5 9.5C24.3954 9.5 23.5 8.60457 23.5 7.5Z" fill="#47ABD7" stroke="#47ABD7"/>
</svg>
