<svg width="59" height="58" viewBox="0 0 59 58" fill="none" xmlns="http://www.w3.org/2000/svg">
                  <path d="M35.3 17h-19a6 6 0 0 0-6 6v19a6 6 0 0 0 6 6h19a6 6 0 0 0 6-6V23a6 6 0 0 0-6-6Z" fill="#47abd7"></path>
                  <path d="M20.8 28h10a1.5 1.5 0 1 1 0 3h-10a1.5 1.5 0 0 1 0-3ZM20.8 34h10a1.5 1.5 0 1 1 0 3h-10a1.5 1.5 0 1 1 0-3Z" fill="#ffffff"></path>
                  <path d="M40.8 24a6.5 6.5 0 1 0 0-13 6.5 6.5 0 0 0 0 13Z" fill="#aee7ff"></path>
                </svg>