<svg width="59" height="58" viewBox="0 0 59 58" fill="none" xmlns="http://www.w3.org/2000/svg">
                  <path d="M34.27 14h-19a6 6 0 0 0-6 6v19a6 6 0 0 0 6 6h19a6 6 0 0 0 6-6V20a6 6 0 0 0-6-6Z" fill="#aee7ff"></path>
                  <path d="M28.27 24h19a6 6 0 0 1 6 6v4a6 6 0 0 1-6 6h-19a6 6 0 0 1-6-6v-4a6 6 0 0 1 6-6Z" fill="#47abd7"></path>
                  <path d="M27.5 35.92a.28.28 0 0 1-.08-.21V27.9a.26.26 0 0 1 .28-.3h3.22a3.5 3.5 0 0 1 2.28.68 2.45 2.45 0 0 1 .83 2 2.38 2.38 0 0 1-.83 2c-.66.47-1.47.7-2.28.66h-1.76v2.81a.26.26 0 0 1-.09.21.3.3 0 0 1-.2.08H27.7a.3.3 0 0 1-.2-.12Zm3.36-4.36c.38.03.76-.1 1.06-.33a1.22 1.22 0 0 0 .37-1 1.29 1.29 0 0 0-.36-1 1.47 1.47 0 0 0-1.07-.35h-1.73v2.62l1.73.06ZM35.42 35.92a.28.28 0 0 1-.08-.21V27.9a.26.26 0 0 1 .28-.3h2.93c2.36 0 3.57 1.09 3.61 3.26V32.72a3.37 3.37 0 0 1-.9 2.48 3.8 3.8 0 0 1-2.65.8h-3a.3.3 0 0 1-.19-.08Zm3.13-1.31a1.94 1.94 0 0 0 1.44-.45c.34-.41.5-.94.47-1.47V30.9a1.7 1.7 0 0 0-2-1.91H37v5.62h1.55ZM43.86 35.92a.3.3 0 0 1-.09-.21V27.9c0-.08.03-.16.08-.22a.29.29 0 0 1 .21-.08h5.21a.28.28 0 0 1 .3.3v.86c0 .08-.03.15-.08.21a.33.33 0 0 1-.22.08h-3.84v2.26h3.6c.08 0 .16.03.22.08.05.06.08.13.08.21v.86a.28.28 0 0 1-.08.2.29.29 0 0 1-.22.09h-3.6v3c0 .08-.03.15-.08.21a.33.33 0 0 1-.22.08h-1.08a.28.28 0 0 1-.19-.12Z" fill="#ffffff"></path>
                </svg>