<svg width="59" height="58" viewBox="0 0 59 58" fill="none" xmlns="http://www.w3.org/2000/svg">
<path d="M15 14C15 11.2422 17.2422 9 20 9H37.5C40.2578 9 42.5 11.2422 42.5 14V44C42.5 46.7578 40.2578 49 37.5 49H20C17.2422 49 15 46.7578 15 44V14ZM25 44C25 44.6875 25.5625 45.25 26.25 45.25H31.25C31.9375 45.25 32.5 44.6875 32.5 44C32.5 43.3125 31.9375 42.75 31.25 42.75H26.25C25.5625 42.75 25 43.3125 25 44ZM37.5 14H20V39H37.5V14Z" fill="black"/>
<rect x="20" y="14" width="18" height="25" fill="#AEE7FF"/>
</svg>
