<svg width="59" height="58" viewBox="0 0 59 58" fill="none" xmlns="http://www.w3.org/2000/svg">
<path d="M15 9C12.2422 9 10 11.2422 10 14V36.5C10 39.2578 12.2422 41.5 15 41.5H22.5V47.75C22.5 48.2266 22.7656 48.6562 23.1875 48.8672C23.6094 49.0781 24.1172 49.0312 24.5 48.75L34.1641 41.5H45C47.7578 41.5 50 39.2578 50 36.5V14C50 11.2422 47.7578 9 45 9H15Z" fill="#AEE7FF"/>
<path d="M15.5059 27.7393L17.4746 27.5479C17.5931 28.2087 17.8324 28.694 18.1924 29.0039C18.557 29.3138 19.0469 29.4688 19.6621 29.4688C20.3138 29.4688 20.8037 29.332 21.1318 29.0586C21.4645 28.7806 21.6309 28.457 21.6309 28.0879C21.6309 27.8509 21.5602 27.6504 21.4189 27.4863C21.2822 27.3177 21.0407 27.1719 20.6943 27.0488C20.4574 26.9668 19.9173 26.821 19.0742 26.6113C17.9896 26.3424 17.2285 26.012 16.791 25.6201C16.1758 25.0687 15.8682 24.3965 15.8682 23.6035C15.8682 23.0931 16.0117 22.6169 16.2988 22.1748C16.5905 21.7282 17.0075 21.3887 17.5498 21.1562C18.0967 20.9238 18.7552 20.8076 19.5254 20.8076C20.7832 20.8076 21.7288 21.0833 22.3623 21.6348C23.0003 22.1862 23.3353 22.9222 23.3672 23.8428L21.3438 23.9316C21.2572 23.4167 21.0703 23.0475 20.7832 22.8242C20.5007 22.5964 20.0745 22.4824 19.5049 22.4824C18.917 22.4824 18.4567 22.6032 18.124 22.8447C17.9098 22.9997 17.8027 23.207 17.8027 23.4668C17.8027 23.7038 17.903 23.9066 18.1035 24.0752C18.3587 24.2894 18.9785 24.5127 19.9629 24.7451C20.9473 24.9775 21.6742 25.2191 22.1436 25.4697C22.6175 25.7158 22.9867 26.0553 23.251 26.4883C23.5199 26.9167 23.6543 27.4476 23.6543 28.0811C23.6543 28.6553 23.4948 29.193 23.1758 29.6943C22.8568 30.1956 22.4056 30.5693 21.8223 30.8154C21.2389 31.057 20.512 31.1777 19.6416 31.1777C18.3747 31.1777 17.4017 30.8861 16.7227 30.3027C16.0436 29.7148 15.638 28.8604 15.5059 27.7393ZM25.3291 31V20.9785H28.3574L30.1758 27.8145L31.9736 20.9785H35.0088V31H33.1289V23.1113L31.1396 31H29.1914L27.209 23.1113V31H25.3291ZM36.5059 27.7393L38.4746 27.5479C38.5931 28.2087 38.8324 28.694 39.1924 29.0039C39.557 29.3138 40.0469 29.4688 40.6621 29.4688C41.3138 29.4688 41.8037 29.332 42.1318 29.0586C42.4645 28.7806 42.6309 28.457 42.6309 28.0879C42.6309 27.8509 42.5602 27.6504 42.4189 27.4863C42.2822 27.3177 42.0407 27.1719 41.6943 27.0488C41.4574 26.9668 40.9173 26.821 40.0742 26.6113C38.9896 26.3424 38.2285 26.012 37.791 25.6201C37.1758 25.0687 36.8682 24.3965 36.8682 23.6035C36.8682 23.0931 37.0117 22.6169 37.2988 22.1748C37.5905 21.7282 38.0075 21.3887 38.5498 21.1562C39.0967 20.9238 39.7552 20.8076 40.5254 20.8076C41.7832 20.8076 42.7288 21.0833 43.3623 21.6348C44.0003 22.1862 44.3353 22.9222 44.3672 23.8428L42.3438 23.9316C42.2572 23.4167 42.0703 23.0475 41.7832 22.8242C41.5007 22.5964 41.0745 22.4824 40.5049 22.4824C39.917 22.4824 39.4567 22.6032 39.124 22.8447C38.9098 22.9997 38.8027 23.207 38.8027 23.4668C38.8027 23.7038 38.903 23.9066 39.1035 24.0752C39.3587 24.2894 39.9785 24.5127 40.9629 24.7451C41.9473 24.9775 42.6742 25.2191 43.1436 25.4697C43.6175 25.7158 43.9867 26.0553 44.251 26.4883C44.5199 26.9167 44.6543 27.4476 44.6543 28.0811C44.6543 28.6553 44.4948 29.193 44.1758 29.6943C43.8568 30.1956 43.4056 30.5693 42.8223 30.8154C42.2389 31.057 41.512 31.1777 40.6416 31.1777C39.3747 31.1777 38.4017 30.8861 37.7227 30.3027C37.0436 29.7148 36.638 28.8604 36.5059 27.7393Z" fill="black"/>
</svg>
