<svg width="59" height="58" viewBox="0 0 59 58" fill="none" xmlns="http://www.w3.org/2000/svg">
                  <path d="M26.37 27.86c.63.45 1.38.7 2.15.7h6.86v3.36l4.35-3.36h1.88a3.63 3.63 0 0 0 3.38-2.28c.18-.45.28-.93.28-1.41V11.69a3.73 3.73 0 0 0-2.26-3.41A3.63 3.63 0 0 0 41.6 8H28.5c-.96 0-1.9.39-2.58 1.08a3.71 3.71 0 0 0-1.08 2.6v16.18h1.52Z" fill="#47abd7"></path>
                  <path d="M27.38 37.32V22.36a3.3 3.3 0 0 0-2-3.02c-.4-.16-.82-.25-1.25-.25H12.52a3.22 3.22 0 0 0-3 2.02c-.16.4-.25.82-.25 1.25v11.7a3.3 3.3 0 0 0 2 3.02c.4.16.82.24 1.25.24h6.38v3.01l3.86-3h4.62Z" fill="#aee7ff"></path>
                  <path d="M22.58 29.17h-2.33l.25-1.56h2.08c.17 0 .32-.08.43-.2a.64.64 0 0 0-.43-1.08h-1.87l.35-2.14a.65.65 0 0 0-.12-.45.63.63 0 0 0-1.13.24l-.38 2.35H17.9l.35-2.14a.65.65 0 0 0-.53-.7.64.64 0 0 0-.72.5l-.39 2.34h-2.54a.63.63 0 0 0-.44.2.64.64 0 0 0 .44 1.08h2.33l-.25 1.56h-2.08a.63.63 0 0 0-.43.2.65.65 0 0 0 .43 1.08h1.87l-.35 2.13a.65.65 0 0 0 .52.7.63.63 0 0 0 .73-.49l.38-2.34h1.53l-.35 2.13a.65.65 0 0 0 .53.7.63.63 0 0 0 .72-.49l.39-2.34h2.54c.16 0 .32-.08.43-.2a.64.64 0 0 0-.43-1.08Zm-3.62 0h-1.53l.26-1.56h1.53l-.26 1.56Z" fill="#ffffff"></path>
                  <path d="M31.63 34.14h-8.67a2.4 2.4 0 0 0-2.24 1.5c-.12.3-.18.62-.18.94v8.73a2.47 2.47 0 0 0 1.5 2.26c.29.12.6.18.92.18h4.77V50l2.88-2.25h1.03a2.4 2.4 0 0 0 2.24-1.5c.12-.3.18-.62.18-.94v-8.73a2.47 2.47 0 0 0-1.5-2.26 2.4 2.4 0 0 0-.93-.18Z" fill="#47abd7"></path>
                  <path d="M35.06 23.3c3.87-2.07 5.87-3.83 5.87-6.56 0-3.76-4.56-4.7-5.87-1.88-1.49-2.92-5.87-1.88-5.87 1.88 0 2.73 2 4.49 5.87 6.56ZM26.04 43.7l.23.18c.35.3.8.45 1.26.45h3.19a.53.53 0 0 0 .5-.35.54.54 0 0 0 .03-.2c-.02-.3 0-2.93 0-3.23a.54.54 0 0 0-.16-.38.53.53 0 0 0-.38-.15L28.55 40l.27-.63a2.31 2.31 0 0 0-.12-2.03.36.36 0 0 0-.4-.16.36.36 0 0 0-.26.33c0 .57-.21 1.12-.58 1.55l-1.38 1.57h-.5v3.06h.46Z" fill="#ffffff"></path>
                  <path d="M25.83 44.18h-1.46a.17.17 0 0 1-.17-.17v-3.75c0-.05.01-.1.05-.12a.17.17 0 0 1 .12-.06h1.46c.04 0 .09.02.12.06.03.03.05.07.05.12v3.75a.17.17 0 0 1-.17.18Z" fill="#ffffff"></path>
                </svg>