<svg width="59" height="58" viewBox="0 0 59 58" fill="none" xmlns="http://www.w3.org/2000/svg">
                  <path d="M37.2705 14H18.2705C14.9568 14 12.2705 16.6863 12.2705 20V39C12.2705 42.3137 14.9568 45 18.2705 45H37.2705C40.5842 45 43.2705 42.3137 43.2705 39V20C43.2705 16.6863 40.5842 14 37.2705 14Z" fill="#aee7ff"></path>
                  <path d="M22.0606 35.8902C22.0221 35.8524 21.9916 35.8073 21.971 35.7574C21.9504 35.7076 21.9401 35.6541 21.9406 35.6001V35.4302L26.5006 23.1701C26.5485 23.0272 26.6419 22.9038 26.7665 22.8189C26.8911 22.7341 27.0401 22.6924 27.1906 22.7002H29.2706C29.4209 22.694 29.5691 22.7364 29.6934 22.821C29.8176 22.9057 29.9114 23.0281 29.9606 23.1701L34.5206 35.4302V35.6001C34.5219 35.6551 34.5108 35.7096 34.4884 35.7598C34.4659 35.81 34.4325 35.8545 34.3906 35.8902C34.3177 35.9595 34.2213 35.9988 34.1206 36.0002H32.4306C32.3124 36.0074 32.195 35.9762 32.0959 35.9114C31.9968 35.8465 31.9213 35.7514 31.8806 35.6402L31.0006 33.3402H25.3806L24.5006 35.6402C24.4599 35.7514 24.3844 35.8465 24.2853 35.9114C24.1862 35.9762 24.0688 36.0074 23.9506 36.0002H22.2606C22.1845 35.9843 22.1148 35.946 22.0606 35.8902ZM26.1206 31.1402H30.4206L28.2706 25.2802L26.1206 31.1402Z" fill="#47abd7"></path>
                </svg>