<svg width="58" height="58" viewBox="0 0 58 58" fill="none" xmlns="http://www.w3.org/2000/svg">
                <path d="M29 11H17a6 6 0 0 0-6 5.8v24.4a6 6 0 0 0 6 5.8h12a6 6 0 0 0 6-5.8V16.8a6 6 0 0 0-6-5.8Z" fill="#47abd7"></path>
                <path d="M30.4 17.8H41a5.9 5.9 0 0 1 5.9 5.8v10.8a5.9 5.9 0 0 1-5.9 5.9H30.4a5.9 5.9 0 0 1-5.9-6V23.7a5.9 5.9 0 0 1 5.9-5.9Z" fill="#aee7ff"></path>
                <path d="M38.2 29.9c-.7.7-.7 1.3-1.4 1.3s-1.4-.6-2.1-1.3c-.7-.7-1.4-1.4-1.4-2 0-.8.7-.8 1.4-1.4.7-.7-1.4-2.8-2.1-2.8-.7 0-2.1 2-2.1 2 0 1.5 1.4 4.2 2.8 5.5a11 11 0 0 0 5.6 2.8s2.1-1.4 2.1-2c0-.8-2.1-2.8-2.8-2.1Z" fill="#ffffff"></path>
              </svg>