<svg width="58" height="58" viewBox="0 0 58 58" fill="none" xmlns="http://www.w3.org/2000/svg">
                  <path d="M48.32 14H9.68A3.7 3.7 0 0 0 6 17.73v7.45a3.7 3.7 0 0 0 3.68 3.73h38.64A3.7 3.7 0 0 0 52 25.18v-7.45A3.7 3.7 0 0 0 48.32 14Z" fill="#47abd7"></path>
                  <path d="m51.17 40.28-4.69-4.7 3.35-1.96a.79.79 0 0 0 .38-.8.8.8 0 0 0-.1-.29.74.74 0 0 0-.38-.34l-14.9-6.02a.77.77 0 0 0-1.03.45.72.72 0 0 0 0 .58l5.95 15.1a.78.78 0 0 0 .41.44.76.76 0 0 0 .6 0c.17-.06.3-.18.4-.33l1.92-3.4 4.7 4.76a.79.79 0 0 0 1.11 0l2.28-2.32a.8.8 0 0 0 .19-.9.8.8 0 0 0-.19-.27Z" fill="#aee7ff"></path>
                  <path d="m16.67 24.9-1.57-5.16v-.1c0-.07.03-.13.07-.18a.2.2 0 0 1 .17-.07h.78c.07 0 .14.02.2.07.04.04.08.09.1.15l1.07 3.67 1.13-3.64a.55.55 0 0 1 .12-.18.32.32 0 0 1 .21-.07h.56c.08 0 .16.02.22.07s.1.1.1.18L21 23.28l1.06-3.67a.4.4 0 0 1 .1-.15.3.3 0 0 1 .2-.07h.83a.22.22 0 0 1 .17.07.23.23 0 0 1 .07.18v.1l-1.58 5.19a.46.46 0 0 1-.13.2.33.33 0 0 1-.22.08h-.73a.35.35 0 0 1-.23-.07.35.35 0 0 1-.13-.21l-1.14-3.51-1.14 3.5a.37.37 0 0 1-.38.29h-.7a.36.36 0 0 1-.24-.08.36.36 0 0 1-.13-.23ZM26.39 24.9l-1.58-5.16v-.1c0-.07.03-.13.08-.18a.2.2 0 0 1 .16-.07h.84c.07 0 .14.02.2.07.04.04.08.09.1.15l1.07 3.67 1.13-3.64a.55.55 0 0 1 .12-.18.32.32 0 0 1 .21-.07h.56c.08 0 .16.02.23.07.05.05.08.1.1.18l1.15 3.64 1.06-3.67a.4.4 0 0 1 .1-.15.3.3 0 0 1 .2-.07h.84a.22.22 0 0 1 .16.07.23.23 0 0 1 .07.18v.1l-1.58 5.19a.46.46 0 0 1-.13.2.33.33 0 0 1-.22.08h-.72a.35.35 0 0 1-.24-.07.35.35 0 0 1-.13-.21L29 21.39l-1.14 3.51a.37.37 0 0 1-.14.2.36.36 0 0 1-.24.08h-.72a.36.36 0 0 1-.37-.28ZM36.1 24.9l-1.58-5.16v-.1c0-.07.03-.13.07-.18a.2.2 0 0 1 .17-.07h.84c.07 0 .13.02.19.07.05.04.09.09.1.15l1.08 3.67 1.13-3.64a.55.55 0 0 1 .12-.18.32.32 0 0 1 .2-.07H39c.08 0 .16.02.22.07.05.05.09.1.1.18l1.15 3.64 1.07-3.67a.4.4 0 0 1 .1-.15.3.3 0 0 1 .2-.07h.83a.22.22 0 0 1 .17.07.23.23 0 0 1 .07.18v.1l-1.58 5.19a.46.46 0 0 1-.13.2.33.33 0 0 1-.22.08h-.73a.35.35 0 0 1-.23-.07.35.35 0 0 1-.14-.21l-1.14-3.51-1.14 3.5a.37.37 0 0 1-.38.29h-.71a.36.36 0 0 1-.26-.07.36.36 0 0 1-.14-.24Z" fill="#ffffff"></path>
                </svg>