<svg width="59" height="58" viewBox="0 0 59 58" fill="none" xmlns="http://www.w3.org/2000/svg">
                  <path d="M28.7705 11C33.677 11 38.3826 12.9491 41.852 16.4185C45.3214 19.8879 47.2705 24.5935 47.2705 29.5C47.2705 34.4065 45.3214 39.1121 41.852 42.5815C38.3826 46.0509 33.677 48 28.7705 48C23.864 48 19.1584 46.0509 15.689 42.5815C12.2196 39.1121 10.2705 34.4065 10.2705 29.5C10.2705 24.5935 12.2196 19.8879 15.689 16.4185C19.1584 12.9491 23.864 11 28.7705 11Z" fill="#aee7ff"></path>
                  <path d="M28.8108 36.0705C29.9374 36.0705 30.8508 35.1572 30.8508 34.0305C30.8508 32.9039 29.9374 31.9905 28.8108 31.9905C27.6841 31.9905 26.7708 32.9039 26.7708 34.0305C26.7708 35.1572 27.6841 36.0705 28.8108 36.0705Z" fill="#47abd7"></path>
                  <path d="M33.6803 29.1204L33.5903 29.0304L33.5003 28.9404C32.235 27.7878 30.5745 27.1666 28.8633 27.2057C27.1521 27.2448 25.5217 27.9412 24.3103 29.1504L24.0203 29.4504L23.6103 29.8604C23.3703 30.1004 23.2355 30.426 23.2355 30.7654C23.2355 31.1048 23.3703 31.4303 23.6103 31.6704C23.8466 31.9061 24.1666 32.0385 24.5003 32.0385C24.834 32.0385 25.1541 31.9061 25.3903 31.6704L26.0903 30.9704C26.8619 30.2058 27.9041 29.7769 28.9903 29.7769C30.0765 29.7769 31.1188 30.2058 31.8903 30.9704L32.4003 31.4604C32.5175 31.5786 32.6569 31.6724 32.8105 31.7365C32.9641 31.8005 33.1289 31.8335 33.2953 31.8335C33.4618 31.8335 33.6265 31.8005 33.7802 31.7365C33.9338 31.6724 34.0732 31.5786 34.1903 31.4604C34.3092 31.345 34.4034 31.2065 34.467 31.0535C34.5306 30.9005 34.5623 30.7361 34.5603 30.5704C34.5598 30.2364 34.4267 29.9163 34.1903 29.6804L33.6803 29.1204Z" fill="#47abd7"></path>
                  <path d="M37.1608 26.6004L36.7308 26.1704L36.3908 25.8304C36.3345 25.7721 36.2706 25.7216 36.2008 25.6804C34.1114 23.8499 31.4117 22.8693 28.6346 22.9323C25.8576 22.9952 23.205 24.0972 21.2008 26.0204L21.1408 26.0804L20.3708 26.8404C20.2625 26.9494 20.1766 27.0786 20.1183 27.2208C20.0599 27.363 20.0301 27.5152 20.0305 27.6689C20.031 27.8226 20.0617 27.9747 20.121 28.1165C20.1802 28.2583 20.2668 28.3871 20.3758 28.4954C20.4848 28.6037 20.6141 28.6896 20.7562 28.748C20.8984 28.8064 21.0506 28.8361 21.2043 28.8357C21.358 28.8352 21.5101 28.8045 21.6519 28.7452C21.7937 28.686 21.9224 28.5994 22.0308 28.4904L22.7908 27.7304C24.4122 26.1698 26.5714 25.2922 28.8218 25.2792C31.0722 25.2661 33.2414 26.1187 34.8808 27.6604L35.4808 28.2604C35.7045 28.4529 35.9928 28.5538 36.2877 28.5428C36.5827 28.5317 36.8625 28.4096 37.0712 28.2009C37.28 27.9921 37.4021 27.7123 37.4131 27.4173C37.4242 27.1224 37.3233 26.8341 37.1308 26.6104L37.1608 26.6004Z" fill="#47abd7"></path>
                </svg>