<svg width="40" height="40" viewBox="0 0 40 40" fill="none" xmlns="http://www.w3.org/2000/svg"><path d="M20 3.3a16.7 16.7 0 1 0 0 33.4 16.7 16.7 0 0 0 0-33.4Z" fill="#FE8C25"></path><path d="M19.7 10A10 10 0 0 0 14 28a9.8 9.8 0 0 0 11.9 0l.7-.5-2.2-2.5-1 .8-1.4 1.3-2.2-2.5a571.8 571.8 0 0 1-1.2-1.3l1-1-2.6-3 1-1-2.7-3.1 3.7-3.4 1.4 1.5 2.3-2 1.4 1.4 1.2-1.1-.6-.5h-.2c-1.3-.8-3-1.1-4.7-1.1Zm6.3 2.3-1.1 1 1 1 1-1-1-1Zm-3.4.3L21 14l1.5 1.7 1.7-1.5-1.5-1.7Zm-3.8.6-2.3 2 2.1 2.4 2.3-2.1-2-2.3Zm8.7 2.6-1.1 1 1 1.1 1-1-1-1Zm-3.2.4-1.7 1.5 1.5 1.7 1.7-1.5-1.5-1.7Zm-3.8 1-2.3 2.2 2.1 2.3 2.3-2.1-2-2.3Zm8.5 2.2-1.1 1 1 1 1.1-1-1-1Zm-3.2.6L24 21.5l1.5 1.7 1.7-1.5-1.5-1.7Zm-3.6 1.4-2.3 2 2.1 2.4 2.3-2-2-2.4Zm5.1 2.2-1.6 1.5 1.5 1.7 1.7-1.5-1.6-1.7Z" fill="#fff"></path></svg>