<svg width="40" height="40" viewBox="0 0 40 40" fill="none" xmlns="http://www.w3.org/2000/svg"><path d="M36.67 19.98a16.67 16.67 0 1 1-33.34.03 16.67 16.67 0 0 1 33.34-.03Z" fill="#03A9F4"></path><path d="M29 14.71a7.5 7.5 0 0 1-2.13.59 3.69 3.69 0 0 0 1.63-2.03c-.71.41-1.5.72-2.35.88A3.69 3.69 0 0 0 23.46 13a3.68 3.68 0 0 0-3.6 4.5 10.52 10.52 0 0 1-7.6-3.83 3.65 3.65 0 0 0 1.14 4.9 3.76 3.76 0 0 1-1.68-.47v.04a3.67 3.67 0 0 0 2.96 3.6 3.67 3.67 0 0 1-1.66.06 3.7 3.7 0 0 0 3.44 2.54A7.46 7.46 0 0 1 11 25.86a10.55 10.55 0 0 0 5.66 1.64c6.8 0 10.5-5.58 10.5-10.42v-.47a7.27 7.27 0 0 0 1.84-1.9Z" fill="#fff"></path></svg>