<svg width="40" height="40" viewBox="0 0 40 40" fill="none" xmlns="http://www.w3.org/2000/svg"><circle cx="20" cy="20" r="16.66" fill="#40C351"></circle><path fill-rule="evenodd" clip-rule="evenodd" d="m10.5 29.5 1.33-4.88a9.43 9.43 0 1 1 17.59-4.7 9.41 9.41 0 0 1-13.93 8.27l-5 1.31Z" fill="#fff"></path><path fill-rule="evenodd" clip-rule="evenodd" d="M10.5 29.75a.25.25 0 0 1-.24-.31l1.3-4.78a9.67 9.67 0 1 1 3.9 3.8l-4.9 1.28-.06.01Z" fill="#fff"></path><path fill-rule="evenodd" clip-rule="evenodd" d="M25.54 14.38a7.84 7.84 0 0 0-12.17 9.7l.18.3-.8 2.89 2.97-.78.29.17a7.84 7.84 0 0 0 9.53-12.28Z" fill="#40C351"></path><path fill-rule="evenodd" clip-rule="evenodd" d="M17.64 15.98c-.17-.4-.36-.4-.53-.41h-.45a.87.87 0 0 0-.63.29c-.21.23-.82.8-.82 1.96s.84 2.28.96 2.44c.12.15 1.63 2.6 4.02 3.55 1.99.78 2.4.63 2.83.59.43-.04 1.39-.57 1.59-1.12.2-.55.2-1.02.13-1.12-.06-.1-.21-.16-.45-.27a38.4 38.4 0 0 0-1.6-.77c-.22-.08-.38-.12-.54.12-.15.23-.6.76-.74.92-.14.16-.28.18-.51.06-.24-.12-1-.37-1.9-1.17a7.1 7.1 0 0 1-1.3-1.63c-.14-.23-.02-.36.1-.48.1-.1.23-.27.35-.41.12-.14.16-.24.24-.4.08-.15.04-.29-.02-.4-.06-.12-.52-1.29-.73-1.75Z" fill="#fff"></path></svg>