<svg width="40" height="40" viewBox="0 0 40 40" fill="none" xmlns="http://www.w3.org/2000/svg"><circle cx="20" cy="20" r="16.66" fill="#484848"></circle><path fill-rule="evenodd" clip-rule="evenodd" d="M23.8 17.5a7.07 7.07 0 0 0 4.13 1.32v-2.96c-.3 0-.58-.03-.87-.1v2.34a7.08 7.08 0 0 1-4.12-1.32v6.03a5.47 5.47 0 0 1-8.52 4.55 5.46 5.46 0 0 0 9.39-3.83V17.5Zm1.07-2.99a4.12 4.12 0 0 1-1.06-2.4v-.39h-.83c.21 1.18.92 2.19 1.9 2.8Zm-8.53 10.53a2.5 2.5 0 0 1 2.75-3.9v-3.02a5.57 5.57 0 0 0-.87-.05v2.35a2.5 2.5 0 0 0-1.88 4.62Z" fill="#EC407A"></path><path fill-rule="evenodd" clip-rule="evenodd" d="M22.94 16.78a7.07 7.07 0 0 0 4.12 1.32v-2.33a4.14 4.14 0 0 1-2.19-1.26A4.14 4.14 0 0 1 23 11.72h-2.16v11.81a2.5 2.5 0 0 1-4.5 1.5 2.5 2.5 0 0 1 1.9-4.6v-2.36a5.47 5.47 0 0 0-3.8 9.29 5.47 5.47 0 0 0 8.51-4.54v-6.04Z" fill="#fff"></path><path fill-rule="evenodd" clip-rule="evenodd" d="M27.06 15.77v-.63c-.77 0-1.53-.22-2.19-.63a4.13 4.13 0 0 0 2.2 1.26Zm-4.08-4.05a4.04 4.04 0 0 1-.04-.34V11h-2.98v11.81a2.5 2.5 0 0 1-3.62 2.23 2.5 2.5 0 0 0 4.49-1.5V11.71h2.15Zm-4.76 6.35v-.67a5.47 5.47 0 0 0-3.8 9.96 5.47 5.47 0 0 1 3.8-9.29Z" fill="#81D4FA"></path></svg>