<svg width="40" height="40" viewBox="0 0 40 40" fill="none" xmlns="http://www.w3.org/2000/svg"><path d="M36.67 19.98a16.67 16.67 0 1 1-33.34.03 16.67 16.67 0 0 1 33.34-.03Z" fill="#FEDA01"></path><path d="M19.5 29c.6 0 1.68-.22 2.47-.6 1.24-.6 2.48-.6 3.1-.6.62 0 .62-1.22.62-1.22a4.06 4.06 0 0 0 2.07-.9c.37-.3.29-.74-.15-.97-2.05-1.1-3.16-4.01-3.16-4.01l2.38-1.46c.4-.29.55-.79.4-1.24-.2-.59-.85-.9-1.44-.7l-1.34.53v-1.91a4.96 4.96 0 0 0-9.91 0v1.9l-1.34-.52c-.6-.2-1.24.11-1.44.7-.15.45 0 .95.4 1.24l2.38 1.46s-1.11 2.91-3.17 4c-.43.24-.51.68-.14.99.54.44 1.08.72 2.07.9 0 0 0 1.2.62 1.2s1.86 0 3.1.61c.78.38 1.86.6 2.47.6Z" fill="#fff"></path></svg>