<svg width="40" height="40" viewBox="0 0 40 40" fill="none" xmlns="http://www.w3.org/2000/svg"><path d="M20 3.33a16.67 16.67 0 1 0 0 33.34 16.67 16.67 0 0 0 0-33.34Z" fill="#FF0000"></path><path d="M29.6 24.95a2.5 2.5 0 0 1-2.1 2 52.04 52.04 0 0 1-15 0 2.5 2.5 0 0 1-2.1-2C10.2 23.8 10 22.1 10 20s.2-3.8.4-4.95a2.5 2.5 0 0 1 2.1-2 52.04 52.04 0 0 1 15 0 2.5 2.5 0 0 1 2.1 2c.2 1.15.45 2.85.45 4.95-.05 2.1-.25 3.8-.45 4.95Z" fill="#fff"></path><path d="M18 23.5v-7l6 3.5-6 3.5Z" fill="#FF0000"></path></svg>