<svg width="40" height="40" viewBox="0 0 40 40" fill="none" xmlns="http://www.w3.org/2000/svg"><path d="M20 3.33a16.67 16.67 0 1 0 0 33.34 16.67 16.67 0 0 0 0-33.34Z" fill="#29B6F6"></path><path d="m27.96 12.75-2.8 14.34s-.13.66-.94.66c-.43 0-.66-.2-.66-.2l-6.08-5.06L14.5 21l-3.82-1.01s-.68-.2-.68-.76c0-.47.7-.7.7-.7l15.99-6.34s.48-.18.84-.18c.22 0 .47.1.47.38 0 .18-.04.37-.04.37Z" fill="#fff"></path><path d="m19.75 24.38-2.57 2.53s-.11.09-.26.09c-.05 0-.1 0-.16-.03l.72-4.48 2.27 1.89Z" fill="#B0BEC5"></path><path d="M24.92 15.15a.38.38 0 0 0-.52-.07L14.5 21s1.58 4.42 1.82 5.18c.24.77.44.79.44.79l.72-4.48 7.37-6.82c.17-.12.2-.36.07-.52Z" fill="#CFD8DC"></path></svg>