<svg width="40" height="40" viewBox="0 0 40 40" fill="none" xmlns="http://www.w3.org/2000/svg"><path d="M20 3.33a16.67 16.67 0 1 0 0 33.34 16.67 16.67 0 0 0 0-33.34Z" fill="#DD2C00"></path><path d="M14.46 23.63c-.21 0-.38-.13-.5-.34a2.53 2.53 0 0 1-.17-.7c-.08-.92 0-2.3.3-2.71.12-.21.33-.3.5-.3.12 0 .24.05 2.95 1.17l.8.33c.29.13.45.42.45.75 0 .34-.2.59-.5.67l-1.12.38c-2.5.75-2.59.75-2.71.75Zm5.54 1.5c0 2.62 0 2.7-.04 2.83a.6.6 0 0 1-.46.37c-.67.13-2.75-.66-3.2-1.16-.1-.13-.13-.21-.18-.34 0-.08 0-.16.05-.25.04-.12.12-.25 2-2.45l.54-.67c.16-.25.54-.3.83-.21.3.13.5.38.46.67v1.2Zm-.5-5.59c-.13.04-.54.17-1.04-.66 0 0-3.38-5.38-3.46-5.55a.65.65 0 0 1 .17-.58c.5-.54 3.2-1.3 3.91-1.12.25.04.38.2.46.41.04.25.38 5.21.42 6.34.08 1-.34 1.12-.46 1.16Zm1.83 1.25c-.16-.25-.16-.58 0-.79l.71-.96c1.5-2.08 1.59-2.2 1.71-2.25.17-.12.38-.12.58-.04.59.3 1.84 2.13 1.92 2.8v.03c0 .25-.08.42-.25.55-.13.08-.2.12-3.08.79-.46.12-.71.16-.84.2v-.04c-.25.13-.58-.04-.75-.29Zm4.88 3.54A5.55 5.55 0 0 1 24.08 27c-.2.08-.41.08-.58-.08-.13-.09-.2-.25-1.7-2.67l-.47-.7c-.16-.26-.12-.6.09-.88.2-.25.5-.34.79-.25l1.12.37c2.5.84 2.59.84 2.67.92.17.2.25.42.2.62Z" fill="#fff"></path></svg>