<svg width="40" height="40" viewBox="0 0 40 40" fill="none" xmlns="http://www.w3.org/2000/svg"><path d="M36.67 19.98a16.67 16.67 0 1 1-33.34.03 16.67 16.67 0 0 1 33.34-.03Z" fill="url(#id10)"></path><path d="M20.37 9.51c-7.2 0-11.01 4.83-11.01 10.09 0 2.44 1.3 5.49 3.38 6.46.31.14.48.08.56-.23l.46-1.89a.5.5 0 0 0-.12-.47 6.48 6.48 0 0 1-1.24-3.8 7.21 7.21 0 0 1 7.53-7.24c4.1 0 6.96 2.79 6.96 6.78 0 4.5-2.28 7.63-5.24 7.63-1.63 0-2.86-1.35-2.47-3.01.47-1.98 1.38-4.12 1.38-5.55 0-1.28-.68-2.35-2.1-2.35-1.68 0-3.02 1.73-3.02 4.05 0 1.48.5 2.47.5 2.47l-1.96 8.29a15.9 15.9 0 0 0-.05 4.77c.37.15.75.3 1.14.41a18.6 18.6 0 0 0 2.07-4.36l1.04-3.97c.54 1.04 2.13 1.92 3.82 1.92 5.02 0 8.64-4.63 8.64-10.37 0-5.5-4.49-9.63-10.27-9.63Z" fill="#fff"></path><defs><linearGradient id="id10" x1="12.51" y1="5.42" x2="27.99" y2="35.55" gradientUnits="userSpaceOnUse"><stop stop-color="#F22543"></stop><stop offset=".42" stop-color="#EB2239"></stop><stop offset="1" stop-color="#E52030"></stop></linearGradient></defs></svg>