<svg width="40" height="40" viewBox="0 0 40 40" fill="none" xmlns="http://www.w3.org/2000/svg"><path d="M20 3.33a16.67 16.67 0 1 0 0 33.34 16.67 16.67 0 0 0 0-33.34Z" fill="#006064"></path><path d="M15.26 23.21h-2.6a.38.38 0 0 1-.34-.17.4.4 0 0 1 0-.4l2.76-4.83v-.02l-1.75-3.02c-.08-.14-.09-.28-.02-.4.07-.1.2-.16.35-.16h2.6c.4 0 .6.26.72.49l1.79 3.1-2.8 4.92c-.14.23-.32.5-.71.5Z" fill="#fff"></path><path d="M27.64 11.57 21.9 21.73v.02l3.66 6.68c.07.15.07.3 0 .4-.07.11-.19.17-.34.17h-2.6c-.4 0-.6-.26-.72-.5l-3.69-6.76 5.78-10.24c.13-.25.3-.5.69-.5h2.62c.16 0 .28.06.35.17.07.1.06.25 0 .4Z" fill="#CDDC39"></path></svg>