<svg width="40" height="40" viewBox="0 0 40 40" fill="none" xmlns="http://www.w3.org/2000/svg"><path d="M36.67 19.98a16.67 16.67 0 1 1-33.34.03 16.67 16.67 0 0 1 33.34-.03Z" fill="#29B6F6"></path><path d="M30 15.4c-.1 1.96-1.43 4.58-4.1 7.9-2.71 3.53-5 5.24-6.9 5.24-1.15 0-2.15-1.04-2.95-3.19-.53-1.95-1.1-3.9-1.62-5.85-.62-2.14-1.24-3.19-1.9-3.19-.15 0-.67.24-1.58.86l-.95-1.1c1-.86 1.9-1.47 2.86-2.33 1.33-1.14 2.28-1.71 2.95-1.76 1.57-.15 2.52.9 2.85 3.14.38 2.43.72 3.71.86 4.28.43 2 .95 3.05 1.48 3.05.42 0 1.04-.67 1.9-1.95.86-1.33 1.29-2.29 1.33-3 .15-1.14-.33-1.71-1.33-1.71-.48 0-1 .23-1.52.42 1-3.19 2.9-4.85 5.66-4.76 2.1.05 3.05 1.38 2.95 3.96Z" fill="#fff"></path></svg>