<svg width="40" height="40" viewBox="0 0 40 40" fill="none" xmlns="http://www.w3.org/2000/svg"><path d="M20 36.15a16.15 16.15 0 1 0 0-32.3 16.15 16.15 0 0 0 0 32.3Z" fill="#ED3675"></path><path fill-rule="evenodd" clip-rule="evenodd" d="M20 9.5a10.5 10.5 0 1 0 0 21 10.5 10.5 0 0 0 0-21Zm6.94 4.84a8.93 8.93 0 0 1 2.02 5.58c-.3-.06-3.25-.66-6.24-.28-.07-.15-.12-.31-.2-.47-.17-.43-.38-.88-.58-1.3a12 12 0 0 0 5-3.53ZM20 11.04c2.28 0 4.36.86 5.94 2.26-.16.23-1.51 2.04-4.7 3.24-1.47-2.7-3.1-4.91-3.35-5.25a9.15 9.15 0 0 1 2.11-.24Zm-3.82.85c.24.32 1.84 2.54 3.33 5.18-4.2 1.12-7.9 1.1-8.3 1.1a9.01 9.01 0 0 1 4.97-6.28Zm-5.15 8.12v-.27c.38.01 4.73.07 9.2-1.28.27.5.51 1.02.74 1.53l-.35.1c-4.63 1.5-7.09 5.57-7.3 5.91a8.94 8.94 0 0 1-2.3-5.99ZM20 28.97a8.9 8.9 0 0 1-5.5-1.89c.16-.33 1.98-3.83 7.04-5.6l.05-.02a37.05 37.05 0 0 1 1.92 6.8 8.83 8.83 0 0 1-3.51.71Zm5-1.53c-.1-.55-.57-3.17-1.74-6.4 2.81-.44 5.27.3 5.58.4a8.9 8.9 0 0 1-3.84 6Z" fill="#fff"></path></svg>