<svg width="40" height="40" viewBox="0 0 40 40" fill="none" xmlns="http://www.w3.org/2000/svg"><path d="M36.67 19.98a16.67 16.67 0 1 1-33.34.03 16.67 16.67 0 0 1 33.34-.03Z" fill="#479951"></path><path d="M20 14c-2.66 0-5.14.71-6.84 1.86H10c.52.6.9 1.43 1 1.99a4.97 4.97 0 0 0 7.89 6.05c.37.44.99 1.31 1.11 1.56 0 0 .71-1.05 1.11-1.54a4.98 4.98 0 0 0 7.9-6.07c.09-.56.47-1.39.99-2h-3.32A12 12 0 0 0 20 14Zm0 .84c1.78 0 3.4.33 4.82.96A4.99 4.99 0 0 0 20 20.78a4.97 4.97 0 0 0-4.96-4.98 12.7 12.7 0 0 1 4.96-.96Zm-4.98 1.91a4.02 4.02 0 0 1 0 8.03 4.02 4.02 0 0 1 0-8.03Zm9.96 0a4.02 4.02 0 0 1 0 8.03 4.02 4.02 0 0 1 0-8.03Zm-10.02 1.59a2.42 2.42 0 1 0 0 4.85 2.42 2.42 0 0 0 0-4.85Zm10.02 0a2.4 2.4 0 1 0 0 4.82 2.4 2.4 0 1 0 0-4.82Zm-10.02.74a1.68 1.68 0 0 1 0 3.36 1.68 1.68 0 0 1 0-3.36Zm10.02 0a1.67 1.67 0 1 1 0 3.34 1.67 1.67 0 1 1 0-3.34Zm-10.14.86a.83.83 0 0 0-.82.82.8.8 0 1 0 1.62 0 .8.8 0 0 0-.8-.82Zm10 0a.8.8 0 0 0-.8.82c0 .45.35.8.8.8a.8.8 0 0 0 .82-.8.83.83 0 0 0-.82-.82Z" fill="#fff"></path></svg>