<svg width="40" height="40" viewBox="0 0 40 40" fill="none" xmlns="http://www.w3.org/2000/svg"><circle cx="20" cy="20" r="16.66" fill="#00C300"></circle><path d="M29.5 19.67c0-4.23-4.26-7.67-9.5-7.67s-9.5 3.44-9.5 7.67c0 3.78 3.38 6.96 7.95 7.56.3.06.73.2.83.46.1.24.06.62.03.86l-.13.8c-.04.24-.2.94.82.52 1.01-.43 5.47-3.2 7.46-5.49a6.8 6.8 0 0 0 2.04-4.71Zm-13.22 2.51H14.4a.5.5 0 0 1-.5-.5v-3.75a.5.5 0 0 1 1 0v3.26h1.4a.5.5 0 1 1 0 .99Zm1.95-.5a.5.5 0 0 1-1 0v-3.75a.5.5 0 0 1 1 0v3.75Zm4.55 0a.5.5 0 0 1-.5.5.5.5 0 0 1-.4-.2l-1.93-2.62v2.32a.5.5 0 0 1-1 0v-3.75a.5.5 0 0 1 .5-.5c.15 0 .3.08.4.2l1.93 2.62v-2.32a.5.5 0 0 1 1 0v3.75Zm3.05-2.37a.5.5 0 1 1 0 1h-1.39v.88h1.4a.5.5 0 1 1 0 1h-1.9a.5.5 0 0 1-.5-.5v-3.76c0-.27.23-.5.5-.5h1.9c.27 0 .5.23.5.5a.5.5 0 0 1-.5.5h-1.4v.88h1.4Z" fill="#fff"></path></svg>