<svg width="40" height="40" viewBox="0 0 40 40" fill="none" xmlns="http://www.w3.org/2000/svg"><path d="M36.67 19.98a16.67 16.67 0 1 1-33.34.03 16.67 16.67 0 0 1 33.34-.03Z" fill="#FF4500"></path><path d="M21.6 12.2a2.2 2.2 0 0 0-2.2 2.2v2.02a9.89 9.89 0 0 0-4.36 1.22 2.42 2.42 0 0 0-1.7-.64c-.65 0-1.31.22-1.78.74v.01l-.02.01a2.64 2.64 0 0 0 .67 3.81l-.01.23c0 2.98 3.5 5.4 7.8 5.4s7.8-2.42 7.8-5.4l-.02-.22a2.64 2.64 0 0 0 .68-3.82h-.01l-.01-.02a2.36 2.36 0 0 0-1.79-.74c-.6 0-1.22.2-1.69.64a9.89 9.89 0 0 0-4.36-1.22V14.4c0-.59.34-1 1-1 .31 0 .69.16 1.29.37.5.17 1.16.35 2 .4.2.6.75 1.03 1.41 1.03.82 0 1.5-.67 1.5-1.5 0-.82-.68-1.5-1.5-1.5a1.5 1.5 0 0 0-1.3.78 5.9 5.9 0 0 1-1.72-.35c-.54-.19-1.04-.43-1.68-.43Zm-8.25 6c.23 0 .46.06.65.16a5.17 5.17 0 0 0-1.47 1.9c-.16-.2-.26-.42-.3-.66-.06-.4.06-.82.25-1.07.18-.2.5-.33.87-.33Zm13.3 0c.36 0 .7.14.87.33.2.25.31.67.25 1.07-.04.24-.14.46-.3.66-.3-.7-.8-1.35-1.47-1.9.19-.1.41-.16.65-.16ZM17 19.4a1.2 1.2 0 1 1 0 2.4 1.2 1.2 0 0 1 0-2.4Zm6 0a1.2 1.2 0 1 1 0 2.4 1.2 1.2 0 0 1 0-2.4Zm.14 3.32A3.3 3.3 0 0 1 20 24.8a3.36 3.36 0 0 1-3.14-2c.69.56 1.84.96 3.14.96s2.45-.4 3.14-1.04Z" fill="#fff"></path></svg>