<svg width="40" height="40" viewBox="0 0 40 40" fill="none" xmlns="http://www.w3.org/2000/svg"><path d="M20 3.33a16.67 16.67 0 1 0 0 33.34 16.67 16.67 0 0 0 0-33.34Z" fill="#7E57C2"></path><path d="M19.88 10c-.6 0-1.19.04-1.79.11-1.14.14-2.28.38-3.37.88a5.5 5.5 0 0 0-3.32 4.11c-.15.83-.27 1.67-.34 2.52a13.6 13.6 0 0 0 .41 4.9 5.3 5.3 0 0 0 2.23 3.17c.5.31 1.16.47 1.5.63.1.04.13.07.13.08a243.59 243.59 0 0 0 .02 3.17V30h.78l.12-.12s1.97-1.9 2.69-2.68l.2-.23.13-.01c.93-.02 1.87-.06 2.8-.11 1.23-.07 2.49-.18 3.7-.69a4.64 4.64 0 0 0 2.46-2.23c.54-1.1.83-2.28.94-3.49.18-2.02.12-4.03-.44-6.02a5.02 5.02 0 0 0-2-2.85 9.01 9.01 0 0 0-3.9-1.35 20.21 20.21 0 0 0-2.95-.22Zm.57.88c.75.02 1.5.09 2.25.2 1.29.2 2.5.49 3.54 1.2a4.1 4.1 0 0 1 1.65 2.37c.52 1.86.59 3.77.41 5.71a8.89 8.89 0 0 1-.85 3.18 3.7 3.7 0 0 1-2.02 1.82c-1.05.44-2.2.56-3.4.62-.93.05-1.85.09-2.78.1-.23.01-.46.07-.62.2-.16.11-.23.22-.33.33-.51.56-1.53 1.54-2.08 2.07v-2.15c0-.23-.05-.45-.18-.63s-.3-.3-.47-.37c-.49-.23-1.13-.4-1.41-.58a4.38 4.38 0 0 1-1.85-2.67c-.43-1.49-.51-3.03-.39-4.6.07-.8.19-1.62.34-2.42a4.53 4.53 0 0 1 2.82-3.48c.98-.45 2.02-.67 3.12-.8.75-.1 1.5-.13 2.25-.1Zm.18 2.16c-.36 0-.7.04-1.04.12a.44.44 0 0 0 .2.85 3.83 3.83 0 0 1 4.6 4.6.43.43 0 1 0 .83.18 4.7 4.7 0 0 0-4.59-5.75Zm-4.33.87c-.08 0-.15 0-.23.02-.79.18-1.57.75-1.6 1.77.03.15.03.3.08.43.26.63.48 1.28.8 1.88a13.73 13.73 0 0 0 6.98 6.2c.36.16.74.19 1.1.04.5-.21.93-.53 1.21-1 .4-.64.4-1.08-.24-1.55l-1.26-.93c-.65-.45-1.35-.53-1.83.27-.02.04-.06.07-.1.1a.74.74 0 0 1-.87.2 5 5 0 0 1-2.74-2.52c-.34-.72-.24-1.07.38-1.55.07-.04.13-.1.18-.14.28-.26.35-.55.19-.9a6.95 6.95 0 0 0-1.48-2.04.9.9 0 0 0-.57-.28Zm4.33.44c-.2 0-.39.01-.57.04a.44.44 0 0 0-.28.72c.1.12.27.17.42.14a2.54 2.54 0 0 1 2.94 2.94c-.03.15.02.32.14.42.12.1.3.13.44.07.15-.05.26-.19.28-.35a3.42 3.42 0 0 0-3.37-3.99Zm-.07 1.3a.44.44 0 0 0-.38.65c.08.14.23.22.38.22.73 0 1.3.58 1.3 1.3 0 .16.09.3.22.39a.44.44 0 0 0 .65-.38c0-1.2-.97-2.18-2.17-2.18Z" fill="#fff"></path></svg>