<svg width="40" height="40" viewBox="0 0 40 40" fill="none" xmlns="http://www.w3.org/2000/svg"><path d="M36.7 20a16.7 16.7 0 1 1-33.4 0 16.7 16.7 0 0 1 33.4 0Z" fill="#3B445C"></path><path d="M20.4 12.8v3.6H23.6v2H20.4v5c0 .2 0 .8.5 1.3.3.3.8.5 1.3.5.8 0 1.6-.3 2.2-.5v1.6c-.5.2-1.7.9-3.8.9-1.3 0-2.1-.6-2.6-1.7-.3-.6-.4-1.3-.4-2V18.3h-2v-1.3c2.4-1.2 3-3 3.2-4.3h1.6Zm.2-.4h-2c-.1 0-.2 0-.2.2-.1 2.7-2.4 3.8-3 4.1-.2 0-.2.1-.2.2v1.7c0 .1 0 .2.2.2h1.8v4.6c0 .5 0 4.2 3.4 4.2 2.4 0 3.8-.8 4.1-1l.1-.2v-2a.2.2 0 0 0-.3-.1c-.4.1-1.4.5-2.3.5-1.4 0-1.4-1.4-1.4-1.4v-4.6h3c.1 0 .2 0 .2-.2v-2.4c0-.1 0-.2-.2-.2h-3v-3.4c0-.1 0-.2-.2-.2Z" fill="#fff" stroke="#fff" stroke-width=".8"></path></svg>