<svg width="40" height="40" viewBox="0 0 40 40" fill="none" xmlns="http://www.w3.org/2000/svg"><path d="M34.17 20a14.15 14.15 0 1 1-28.34 0 14.15 14.15 0 1 1 28.34 0Z" fill="#fff"></path><path d="M17.5 34.17v-4.59c0-.25.17-.41.42-.41.25 0 .41.16.41.41v4.59H20v-5.42c0-.25.17-.42.42-.42.25 0 .41.17.41.42v5.42h1.67v-4.59c0-.25.17-.41.42-.41.25 0 .41.16.41.41v4.59h1.5c.17-.25.17-.5.17-.92V30c0-1.83-1.58-4.33-3.58-4.33h-2.09c-1.91 0-3.58 2.58-3.58 4.33v3.25a3 3 0 0 0 .17.92h1.58ZM33.42 22s-1.09-.33-2-.33h-.09c-.91 0-2.41.25-2.41.25-.09 0-.09 0-.09-.09 0-.08 0-.08.09-.08.08 0 1.66-.25 2.58-.25.92 0 2 .33 2.08.33.09 0 .09.09.09.17-.17-.08-.17 0-.25 0Zm-.25.67S32 22.33 31 22.33c-.75 0-2.5.17-2.58.17-.09 0-.09 0-.09-.08 0-.09 0-.09.09-.09.08 0 1.83-.16 2.58-.16 1.08 0 2.17.33 2.17.33.08 0 .08.08.08.17 0-.09 0 0-.08 0ZM6.5 22c-.08 0-.08 0-.08-.08 0-.09 0-.09.08-.17.67-.17 2-.42 2.75-.42.67 0 2.92.17 3 .17.08 0 .08.08.08.08 0 .09-.08.09-.08.09S10 21.5 9.33 21.5c-.91.17-2.16.33-2.83.5Zm.33 1.25s-.08 0-.08-.08V23c.08 0 1.17-.67 2.42-.83 1.08-.17 3.33.08 3.5.08.08 0 .08.08.08.08 0 .09-.08.09-.08.09s-2.34-.25-3.42-.09c-1.25.25-2.42.92-2.42.92Z" fill="#455A64"></path><path d="M11.83 19.58c0-3.66 3.84-7.08 8.59-7.08S29 15.83 29 19.58s-2.75 6.25-8.58 6.25c-5.84 0-8.59-2.58-8.59-6.25Z" fill="#455A64"></path><path d="M23.83 13.58s1.42-1.91 4-1.91c1 1 .34 4 0 4.83l-4-2.92Zm-6.83 0s-1.42-1.91-4-1.91c-1 1-.33 4 0 4.83l4-2.92Zm-.25 16.34h-2.33c-1 0-1.92-.42-2.34-1.25-.5-.92-.91-1.92-2.16-2.75-.25-.17-.09-.34.33-.34.42.09 1.17.17 1.75.92.58.75 1.25 1.67 2.33 1.67 1.09 0 2.25 0 2.92-.75l-.5 2.5Z" fill="#455A64"></path><path d="M20 3.33c-9.17 0-16.67 7.5-16.67 16.67 0 9.17 7.5 16.67 16.67 16.67 9.17 0 16.67-7.5 16.67-16.67 0-9.17-7.5-16.67-16.67-16.67Zm0 30c-7.33 0-13.33-6-13.33-13.33S12.67 6.67 20 6.67s13.33 6 13.33 13.33-6 13.33-13.33 13.33Z" fill="#00BCD4"></path></svg>