<svg width="40" height="40" viewBox="0 0 40 40" fill="none" xmlns="http://www.w3.org/2000/svg"><path d="M36.67 19.98a16.67 16.67 0 1 1-33.34.03 16.67 16.67 0 0 1 33.34-.03Z" fill="#00AFF0"></path><path d="M20 11.43a8.57 8.57 0 1 0 0 17.14 8.57 8.57 0 0 0 0-17.14Z" fill="#fff"></path><path d="M24.07 19.14a4.93 4.93 0 1 0 0 9.86 4.93 4.93 0 0 0 0-9.86ZM15.93 11a4.93 4.93 0 1 0 0 9.86 4.93 4.93 0 0 0 0-9.86Z" fill="#fff"></path><path d="M20.26 25.14c-2.83 0-4.12-1.41-4.12-2.48a.9.9 0 0 1 .95-.95c1.2 0 .9 1.76 3.17 1.76 1.15 0 1.8-.64 1.8-1.28 0-.39-.18-.82-.95-1.03l-2.52-.65c-2.02-.51-2.4-1.63-2.4-2.7 0-2.18 2.01-2.95 3.9-2.95 1.75 0 3.77.94 3.77 2.23 0 .55-.43.9-.99.9-1.03 0-.86-1.46-2.91-1.46-1.03 0-1.63.47-1.63 1.16 0 .68.81.9 1.54 1.07l1.89.43c2.05.47 2.53 1.67 2.53 2.82-.05 1.8-1.33 3.13-4.03 3.13Z" fill="#00AFF0"></path></svg>