<svg width="40" height="40" viewBox="0 0 40 40" fill="none" xmlns="http://www.w3.org/2000/svg"><path d="M36.663 19.98c.01 9.205-7.446 16.674-16.65 16.683-9.205.01-16.674-7.446-16.683-16.65-.01-9.205 7.447-16.674 16.65-16.683 9.205-.01 16.674 7.447 16.683 16.65Z" fill="#717C87"></path><path d="M29.928 18.788c-.538-4.551-4.255-8.232-8.81-8.727C15.098 9.407 10 14.11 10 20c0 4.458 2.925 8.239 6.958 9.529v.01c.01 0 .03.01.04.01.181.06.372.11.562.15.07.03.141.04.211.06h.05c.008.002.015-.001.022 0h.006c.6.1 1.16-.38 1.15-.99v-.83c-.008 0-.016-.003-.023-.004l-.01-.925 3.987-2.99c.763-.64 1.145-1.55 1.024-2.45l-.974-7.56-.16-.01c-.572 0-1.034.39-1.034.86l-.02 5.59v.02c0 .28-.221.42-.452.5-.05.02-.1.02-.141.02-.341 0-.603-.22-.603-.5v-5.88c0-.05-.01-.1-.02-.15a.573.573 0 0 0-.572-.44.592.592 0 0 0-.593.59v5.88c0 .28-.261.5-.593.5-.341 0-.603-.22-.603-.5l.01-5.59c-.01-.5-.492-.91-1.095-.91L17 14l-.966 7.47c-.131.96.1 1.91.964 2.56l1.215.97s-1.235.86-1.235 2.01v.384A7.986 7.986 0 0 1 12 20c0-4.724 4.119-8.506 8.952-7.945 3.591.417 6.529 3.32 6.982 6.908a7.996 7.996 0 0 1-4.964 8.457v-.48a.991.991 0 0 0-1.98.04v1.795c0 .63.581 1.12 1.198.984.266-.06.527-.128.782-.21 4.432-1.382 7.548-5.766 6.958-10.761Z" fill="#5FC98D"></path></svg>