<svg width="40" height="40" viewBox="0 0 40 40" fill="none" xmlns="http://www.w3.org/2000/svg"><path d="M20 3.33a16.67 16.67 0 1 0 0 33.34 16.67 16.67 0 0 0 0-33.34Z" fill="#1976D2"></path><path d="M29.95 15.03c.04-.12.05-.24.05-.34-.01-.3-.22-.52-.7-.52h-2.2c-.54 0-.8.33-.94.66 0 0-1.36 2.8-2.93 4.65-.51.53-.77.52-1.04.52-.15 0-.52-.18-.52-.67v-4.32c0-.58-.15-.84-.61-.84h-3.88c-.34 0-.51.26-.51.53 0 .56.74.69.83 2.25v3.02c0 .73-.13.86-.4.86-.74 0-2.2-2.5-3.18-5.77-.21-.65-.43-.9-.98-.9h-2.2c-.63 0-.74.32-.74.65 0 .6.5 3.85 3.23 7.59 1.98 2.7 4.59 4.27 6.9 4.27 1.4 0 1.54-.36 1.54-.92v-2.47c0-.67.15-.78.6-.78.31 0 .96.2 2.2 1.67 1.45 1.68 1.71 2.5 2.54 2.5h2.18c.5 0 .8-.22.81-.63 0-.1-.01-.22-.05-.35-.16-.48-.9-1.66-1.82-2.77a32.47 32.47 0 0 1-1.26-1.57c-.15-.22-.21-.37-.2-.52 0-.15.08-.3.2-.5-.02 0 2.8-3.96 3.08-5.3Z" fill="#fff"></path></svg>