<svg width="40" height="40" viewBox="0 0 40 40" fill="none" xmlns="http://www.w3.org/2000/svg"><path d="M20 3.33a16.67 16.67 0 1 0 0 33.34 16.67 16.67 0 0 0 0-33.34Z" fill="url(#id11)"></path><path d="M11.65 28.7a.35.35 0 0 1-.34-.4l.17-1.37.7.08-.13.94.93-.12.1.69-1.38.17h-.05ZM20 29c-.55 0-1.11-.05-1.65-.16l.13-.68c.86.17 1.75.19 2.62.07l.1.7c-.4.04-.8.07-1.2.07Zm2.6-.38-.2-.66a8.25 8.25 0 0 0 2.36-1.15l.4.56c-.8.56-1.65.97-2.57 1.25Zm-5.63-.15c-.28-.1-.56-.22-.82-.34l-1.68.21-.09-.69 1.78-.22c.07 0 .14 0 .2.03.27.13.56.25.84.36l-.23.65Zm9.29-2-.48-.5a8.33 8.33 0 0 0 1.57-2.1l.62.32a9.04 9.04 0 0 1-1.71 2.28Zm-13.92-.82-.68-.09.21-1.7a9.09 9.09 0 0 1-.33-.8l.65-.23c.1.27.22.55.35.81.03.06.04.13.03.2l-.23 1.81Zm16.19-2.78-.66-.22c.29-.83.43-1.7.44-2.59h.7c-.02.96-.17 1.91-.48 2.81ZM11.16 21.7a8.95 8.95 0 0 1-.09-2.85l.7.09a8.36 8.36 0 0 0 .07 2.62l-.68.14Zm17.05-2.95a8.24 8.24 0 0 0-.8-2.5l.62-.31c.43.85.72 1.76.87 2.71l-.69.1Zm-16.18-1.1-.66-.2c.27-.92.69-1.78 1.24-2.57l.56.4c-.5.73-.88 1.52-1.14 2.37Zm14.69-2.52a8.36 8.36 0 0 0-1.86-1.86l.4-.56a9.06 9.06 0 0 1 2.02 2.01l-.56.4Zm-12.7-.87-.5-.48a9.03 9.03 0 0 1 2.26-1.72l.33.61c-.78.42-1.49.95-2.1 1.59Zm9.7-1.67a8.23 8.23 0 0 0-2.5-.8l.1-.68c.95.14 1.87.43 2.72.86l-.31.62Zm-6.4-.44-.23-.66c.9-.3 1.85-.47 2.81-.48v.7c-.88 0-1.75.15-2.58.44Z" fill="#fff"></path><path opacity=".05" d="M20 13.08a6.92 6.92 0 1 1-3.59 12.83l-2.7.38.38-2.7A6.92 6.92 0 0 1 20 13.08Zm0-.7a7.62 7.62 0 0 0-6.63 11.35l-.35 2.47-.13.9.91-.12 2.47-.35A7.6 7.6 0 0 0 27.62 20c0-4.2-3.42-7.62-7.62-7.62Z" fill="#000"></path><path opacity=".07" d="M20 13.08a6.92 6.92 0 1 1-3.59 12.83l-2.7.38.38-2.7A6.92 6.92 0 0 1 20 13.08Zm0-.35a7.28 7.28 0 0 0-6.27 10.93l-.37 2.59-.06.45.45-.06 2.59-.37A7.25 7.25 0 0 0 27.27 20c0-4-3.26-7.27-7.27-7.27Z" fill="#000"></path><path d="M20 13.08a6.92 6.92 0 0 0-5.91 10.51l-.38 2.7 2.7-.38A6.92 6.92 0 1 0 20 13.07Z" fill="#fff"></path><defs><linearGradient id="id11" x1="20" y1="3.76" x2="20" y2="41.29" gradientUnits="userSpaceOnUse"><stop stop-color="#2AA4F4"></stop><stop offset="1" stop-color="#007AD9"></stop></linearGradient></defs></svg>