<svg width="32" height="32" viewBox="0 0 32 32" fill="none" xmlns="http://www.w3.org/2000/svg"><path d="M16 8a2.67 2.67 0 1 0 0-5.33A2.67 2.67 0 0 0 16 8ZM25.33 15.87c0-.66-.48-1.19-1.12-1.3a7.68 7.68 0 0 1-4.3-2.34l-1.72-1.91c-.23-.25-.51-.45-.82-.6l-.02-.01h-.02a2.6 2.6 0 0 0-1.66-.34 2.73 2.73 0 0 0-2.34 2.76V20c0 1.47 1.2 2.67 2.67 2.67h6.67V28c0 .73.6 1.33 1.33 1.33.73 0 1.33-.6 1.33-1.33v-6c0-1.47-1.2-2.67-2.66-2.67h-4v-4.6c1.33 1.11 3.2 2.06 5.06 2.43.83.17 1.6-.45 1.6-1.3ZM17.11 24A4 4 0 1 1 12 18.9v-2.77A6.67 6.67 0 1 0 19.87 24H17.1Z" fill="#000000"></path></svg>