<svg width="32" height="32" viewBox="0 0 32 32" fill="none" xmlns="http://www.w3.org/2000/svg"><path d="M27 14.4a5 5 0 0 0-2-.4H7a5 5 0 0 0-4.2 2.3A5 5 0 0 0 2 19v7a1 1 0 0 0 2 0v-.5a.5.5 0 0 1 .5-.5h23a.5.5 0 0 1 .5.5v.5a1 1 0 0 0 2 0v-7a5 5 0 0 0-3-4.6ZM23.5 5h-15A3.5 3.5 0 0 0 5 8.5V13a.3.3 0 0 0 .3.2A6 6 0 0 1 7 13h.3a.2.2 0 0 0 .2-.2 2 2 0 0 1 2-1.8H13a2 2 0 0 1 2 1.8.2.2 0 0 0 .2.2h1.6a.2.2 0 0 0 .2-.2 2 2 0 0 1 2-1.8h3.5a2 2 0 0 1 2 1.8.2.2 0 0 0 .2.2h.3a6 6 0 0 1 1.8.2.3.3 0 0 0 .2-.2V8.5A3.5 3.5 0 0 0 23.5 5Z" fill="#000000"></path></svg>