<svg width="32" height="32" viewBox="0 0 32 32" fill="none" xmlns="http://www.w3.org/2000/svg"><path d="M17.33 4.1v9.23H28a10.67 10.67 0 0 0-9.15-10.56c-.8-.12-1.52.52-1.52 1.34Zm8.43 17.09A10.6 10.6 0 0 0 28 14.67H8.59l-.91-1.91a1.32 1.32 0 0 0-1.2-.76H4c-.73 0-1.33.6-1.33 1.33 0 .74.6 1.34 1.33 1.34h1.63s2.52 5.42 2.82 5.89a4.67 4.67 0 0 0 1.15 8.65c2.8.62 5.3-1.28 5.67-3.88h2.77a4.66 4.66 0 1 0 7.72-4.14Zm-15.1 5.48a2 2 0 1 1 0-4 2 2 0 0 1 0 4Zm12 0a2 2 0 1 1 0-4 2 2 0 0 1 0 4Z" fill="#000000"></path></svg>