<svg width="32" height="32" viewBox="0 0 32 32" fill="none" xmlns="http://www.w3.org/2000/svg"><path d="M20.3 29.7h-13a5 5 0 0 1-3.6-8.6l1.5-1.6a4.4 4.4 0 0 0 0-6.2l-1.6-1.6a.9.9 0 0 1 1.2-1.2l1.5 1.6a6.1 6.1 0 0 1 .2 8.5l-1.6 1.7A3.4 3.4 0 0 0 7.4 28h1.1a32.4 32.4 0 0 1 .7-7.2 14 14 0 0 1 2.6-5.7 7.3 7.3 0 0 1 5-2.7v-6a4.2 4.2 0 0 1 4.3-4.1A1.7 1.7 0 0 1 22.8 4v1h2.4c1.3 0 2.4.7 3.1 1.8l.9 1.4a3.6 3.6 0 0 1-3 5.5v13a3 3 0 0 1-3 3h-1.1v-3a5 5 0 0 0-5-5h-1.8a.9.9 0 1 0 0 1.8H17c1.9 0 3.3 1.4 3.3 3.3v3Z" fill="#000000"></path></svg>