<svg width="32" height="32" viewBox="0 0 32 32" fill="none" xmlns="http://www.w3.org/2000/svg"><path d="M7.33 28a2 2 0 0 0 2-2v-2h13.34v2a2 2 0 1 0 4 0v-3.33c0-1.47-1.2-2.67-2.67-2.67H8a2.67 2.67 0 0 0-2.67 2.67V26c0 1.1.9 2 2 2Zm19.34-14.67H28c.73 0 1.33.6 1.33 1.34V16c0 .73-.6 1.33-1.33 1.33h-1.33c-.74 0-1.34-.6-1.34-1.33v-1.33c0-.74.6-1.34 1.34-1.34ZM4 13.33h1.33c.74 0 1.34.6 1.34 1.34V16c0 .73-.6 1.33-1.34 1.33H4c-.73 0-1.33-.6-1.33-1.33v-1.33c0-.74.6-1.34 1.33-1.34Zm18.67 4H9.33V6.67C9.33 5.2 10.53 4 12 4h8c1.47 0 2.67 1.2 2.67 2.67v10.66Z" fill="#000000"></path></svg>