<svg width="32" height="32" viewBox="0 0 32 32" fill="none" xmlns="http://www.w3.org/2000/svg"><path d="M11.09 6.75 12 4h8l.91 2.75A5.33 5.33 0 0 1 25.33 12v4A2.67 2.67 0 0 1 28 18.67v6.66a2.67 2.67 0 0 1-5.33 0H9.33a2.67 2.67 0 0 1-5.33 0v-6.66A2.67 2.67 0 0 1 6.67 16v-4a5.33 5.33 0 0 1 4.42-5.25ZM12 9.33A2.67 2.67 0 0 0 9.33 12v4h13.34v-4A2.67 2.67 0 0 0 20 9.33h-8Zm-4 12a1.33 1.33 0 1 0 0-2.66 1.33 1.33 0 0 0 0 2.66Zm16 0a1.33 1.33 0 1 0 0-2.66 1.33 1.33 0 0 0 0 2.66Z" fill="#000000"></path></svg>