<svg width="32" height="32" viewBox="0 0 32 32" fill="none" xmlns="http://www.w3.org/2000/svg"><path d="M10.7 6A2.7 2.7 0 0 0 8 8.7v6.7h16V8.7A2.7 2.7 0 0 0 21.3 6H10.7Zm10.2 20-.9-1.3h-8l-.9 1.3h-.4a5.3 5.3 0 0 1-5.4-5.3v-12a5.3 5.3 0 0 1 5.4-5.4h10.6a5.3 5.3 0 0 1 5.4 5.4v12a5.3 5.3 0 0 1-5.4 5.3H21Zm-10.2-4a1.3 1.3 0 1 0 0-2.7 1.3 1.3 0 0 0 0 2.7Zm10.6 0a1.3 1.3 0 1 0 0-2.7 1.3 1.3 0 0 0 0 2.7Zm0-14.7a1.3 1.3 0 0 1 1.4 1.4v4a1.3 1.3 0 1 1-2.7 0v-4a1.3 1.3 0 0 1 1.3-1.4ZM11.1 26h9.8l.4.6a1.3 1.3 0 0 1-1.1 2h-8.4a1.3 1.3 0 0 1-1-2l.3-.6Z" fill="#000000"></path></svg>