<svg width="32" height="32" viewBox="0 0 32 32" fill="none" xmlns="http://www.w3.org/2000/svg">
<path d="M17.89 25.88A2.66 2.66 0 0 0 16 21.33a2.66 2.66 0 0 0-1.89.78 2.66 2.66 0 1 0 3.78 3.77Zm9.42-10.53a2.65 2.65 0 0 1-1.88-.78 13.35 13.35 0 0 0-18.86 0A2.67 2.67 0 0 1 2.8 10.8a18.69 18.69 0 0 1 26.4 0 2.67 2.67 0 0 1-1.89 4.55Zm-16.97 5.66a2.67 2.67 0 0 1-1.88-4.55 10.68 10.68 0 0 1 15.08 0 2.67 2.67 0 1 1-3.77 3.77 5.34 5.34 0 0 0-7.54 0 2.66 2.66 0 0 1-1.89.78Z" fill="#000000"></path></svg>