<?xml version="1.0" standalone="no"?>
<!DOCTYPE svg PUBLIC "-//W3C//DTD SVG 20010904//EN"
 "http://www.w3.org/TR/2001/REC-SVG-20010904/DTD/svg10.dtd">
<svg version="1.0" xmlns="http://www.w3.org/2000/svg"
 width="224.000000pt" height="224.000000pt" viewBox="0 0 224.000000 224.000000"
 preserveAspectRatio="xMidYMid meet">
<metadata>
Created by potrace 1.14, written by Peter Selinger 2001-2017
</metadata>
<g transform="translate(0.000000,224.000000) scale(0.100000,-0.100000)"
fill="#000000" stroke="none">
<path d="M365 1921 c-51 -23 -101 -79 -114 -128 -14 -49 -14 -407 0 -456 13
-49 63 -105 114 -128 34 -16 68 -19 240 -19 116 0 217 5 240 11 52 15 119 82
134 134 14 52 14 408 0 460 -15 52 -82 119 -134 134 -23 6 -124 11 -240 11
-172 0 -206 -3 -240 -19z m492 -105 l28 -24 0 -227 0 -227 -28 -24 c-28 -24
-30 -24 -243 -24 l-216 0 -29 29 -29 29 0 217 0 217 29 29 29 29 216 0 c213 0
215 0 243 -24z"/>
<path d="M1275 1925 c-51 -18 -110 -81 -124 -131 -14 -52 -14 -407 0 -459 15
-52 82 -119 134 -134 52 -14 408 -14 460 0 54 15 120 82 135 138 7 29 10 114
8 250 -3 194 -4 208 -26 246 -26 45 -72 81 -123 95 -55 16 -416 12 -464 -5z
m486 -114 l29 -29 0 -216 c0 -213 0 -215 -24 -243 l-24 -28 -221 -3 -221 -3
-30 30 -30 29 0 217 0 217 29 29 29 29 217 0 217 0 29 -29z"/>
<path d="M1461 1673 c-44 -23 -74 -77 -67 -121 16 -104 132 -144 206 -71 96
96 -19 255 -139 192z"/>
<path d="M365 1021 c-51 -23 -101 -79 -114 -128 -14 -49 -14 -407 0 -456 13
-49 63 -105 114 -128 34 -16 68 -19 240 -19 114 0 217 5 240 11 56 15 130 93
138 145 11 65 8 406 -4 449 -15 52 -82 119 -134 134 -23 6 -124 11 -240 11
-172 0 -206 -3 -240 -19z m492 -105 l28 -24 0 -227 0 -227 -28 -24 c-28 -24
-30 -24 -243 -24 l-216 0 -29 30 -30 30 3 221 3 221 28 24 c28 24 30 24 242
24 212 0 214 0 242 -24z"/>
<path d="M561 772 c-92 -50 -90 -172 4 -217 65 -30 143 4 165 71 34 103 -76
198 -169 146z"/>
<path d="M1275 1025 c-51 -18 -110 -81 -124 -131 -14 -52 -14 -407 0 -459 15
-52 82 -119 134 -134 52 -14 407 -14 460 0 26 7 57 28 87 59 58 60 61 81 56
345 -3 177 -5 193 -26 230 -26 45 -72 81 -123 95 -55 16 -416 12 -464 -5z
m482 -109 l28 -24 3 -221 3 -221 -30 -30 -29 -30 -217 0 -217 0 -29 30 -30 30
3 221 3 221 28 24 c28 24 30 24 242 24 212 0 214 0 242 -24z"/>
</g>
</svg>
