<svg width="126" height="36" viewBox="0 0 126 36" fill="none" xmlns="http://www.w3.org/2000/svg">
<path d="M0.675781 17V1.25195H8.78613C10.29 1.25195 11.4395 1.38086 12.2344 1.63867C13.0293 1.89648 13.6702 2.3763 14.1572 3.07812C14.6442 3.77279 14.8877 4.62142 14.8877 5.62402C14.8877 6.49772 14.7015 7.25326 14.3291 7.89062C13.9567 8.52083 13.4447 9.03288 12.793 9.42676C12.3776 9.67741 11.8083 9.88509 11.085 10.0498C11.665 10.2432 12.0876 10.4365 12.3525 10.6299C12.5316 10.7588 12.7894 11.0345 13.126 11.457C13.4697 11.8796 13.6989 12.2054 13.8135 12.4346L16.166 17H10.666L8.06641 12.1875C7.73698 11.5645 7.44336 11.1598 7.18555 10.9736C6.83464 10.7301 6.43717 10.6084 5.99316 10.6084H5.56348V17H0.675781ZM5.56348 7.63281H7.61523C7.83724 7.63281 8.26693 7.5612 8.9043 7.41797C9.22656 7.35352 9.48796 7.1888 9.68848 6.92383C9.89616 6.65885 10 6.35449 10 6.01074C10 5.50228 9.83887 5.11198 9.5166 4.83984C9.19434 4.56771 8.58919 4.43164 7.70117 4.43164H5.56348V7.63281ZM75.667 11.79L80.2969 11.5C80.3971 12.252 80.6012 12.8249 80.9092 13.2188C81.4105 13.8561 82.1266 14.1748 83.0576 14.1748C83.7523 14.1748 84.2858 14.0137 84.6582 13.6914C85.0378 13.362 85.2275 12.9824 85.2275 12.5527C85.2275 12.1445 85.0485 11.7793 84.6904 11.457C84.3324 11.1348 83.5016 10.8304 82.1982 10.5439C80.0641 10.0641 78.5423 9.42676 77.6328 8.63184C76.7161 7.83691 76.2578 6.82357 76.2578 5.5918C76.2578 4.78255 76.4906 4.01986 76.9561 3.30371C77.4287 2.5804 78.1341 2.01465 79.0723 1.60645C80.0176 1.19108 81.3102 0.983398 82.9502 0.983398C84.9626 0.983398 86.4951 1.35938 87.5479 2.11133C88.6077 2.85612 89.238 4.04492 89.4385 5.67773L84.8516 5.94629C84.7298 5.2373 84.472 4.72168 84.0781 4.39941C83.6914 4.07715 83.1543 3.91602 82.4668 3.91602C81.901 3.91602 81.4749 4.03776 81.1885 4.28125C80.902 4.51758 80.7588 4.80762 80.7588 5.15137C80.7588 5.40202 80.877 5.6276 81.1133 5.82812C81.3424 6.03581 81.8867 6.22917 82.7461 6.4082C84.873 6.86654 86.3949 7.33203 87.3115 7.80469C88.2354 8.27018 88.9049 8.85026 89.3203 9.54492C89.7428 10.2396 89.9541 11.0166 89.9541 11.876C89.9541 12.8857 89.6748 13.8167 89.1162 14.6689C88.5576 15.5212 87.777 16.1693 86.7744 16.6133C85.7718 17.0501 84.5078 17.2686 82.9824 17.2686C80.304 17.2686 78.4492 16.7529 77.418 15.7217C76.3867 14.6904 75.8031 13.3799 75.667 11.79ZM11.0957 28.5654L15.3604 29.8545C15.0739 31.0505 14.6227 32.0495 14.0068 32.8516C13.391 33.6536 12.6247 34.2588 11.708 34.667C10.7985 35.0752 9.63835 35.2793 8.22754 35.2793C6.51595 35.2793 5.11589 35.0322 4.02734 34.5381C2.94596 34.0368 2.01139 33.1595 1.22363 31.9062C0.435872 30.653 0.0419922 29.0488 0.0419922 27.0938C0.0419922 24.487 0.733073 22.4854 2.11523 21.0889C3.50456 19.6852 5.4668 18.9834 8.00195 18.9834C9.98568 18.9834 11.5433 19.3844 12.6748 20.1865C13.8135 20.9886 14.6585 22.2204 15.21 23.8818L10.9131 24.8379C10.7627 24.3581 10.6051 24.0072 10.4404 23.7852C10.1683 23.4128 9.83529 23.1263 9.44141 22.9258C9.04753 22.7253 8.6071 22.625 8.12012 22.625C7.01725 22.625 6.1722 23.069 5.58496 23.957C5.14095 24.6159 4.91895 25.6507 4.91895 27.0615C4.91895 28.8089 5.18392 30.0085 5.71387 30.6602C6.24382 31.3047 6.98861 31.627 7.94824 31.627C8.87923 31.627 9.58105 31.3656 10.0537 30.8428C10.5335 30.32 10.8809 29.5609 11.0957 28.5654ZM14.4344 19.252H19.3006V31.1221H26.8953V35H14.4344V19.252ZM24.8092 27.1367C24.8092 24.5658 25.5253 22.5641 26.9576 21.1318C28.3899 19.6995 30.3844 18.9834 32.941 18.9834C35.5621 18.9834 37.5816 19.6888 38.9996 21.0996C40.4176 22.5033 41.1266 24.4727 41.1266 27.0078C41.1266 28.8483 40.815 30.3594 40.192 31.541C39.5761 32.7155 38.6809 33.6322 37.5064 34.291C36.3391 34.9427 34.8818 35.2686 33.1344 35.2686C31.3583 35.2686 29.8867 34.9857 28.7193 34.4199C27.5592 33.8542 26.6174 32.959 25.8941 31.7344C25.1708 30.5098 24.8092 28.9772 24.8092 27.1367ZM29.6754 27.1582C29.6754 28.748 29.969 29.8903 30.5562 30.585C31.1507 31.2796 31.9563 31.627 32.9732 31.627C34.0188 31.627 34.8281 31.2868 35.401 30.6064C35.9739 29.9261 36.2604 28.7051 36.2604 26.9434C36.2604 25.4609 35.9596 24.3796 35.358 23.6992C34.7636 23.0117 33.9544 22.668 32.9303 22.668C31.9492 22.668 31.1614 23.0153 30.567 23.71C29.9726 24.4046 29.6754 25.554 29.6754 27.1582ZM40.4799 19.252H45.0238L50.9535 27.9639V19.252H55.5404V35H50.9535L45.0561 26.3525V35H40.4799V19.252ZM55.4631 19.252H68.5041V22.6143H60.34V25.1172H67.9133V28.3291H60.34V31.4336H68.7404V35H55.4631V19.252ZM87.5156 35H74.3887C74.5391 33.7038 74.9938 32.4863 75.7529 31.3477C76.5192 30.2018 77.9515 28.8519 80.0498 27.2979C81.3317 26.3454 82.1517 25.6221 82.5098 25.1279C82.8678 24.6338 83.0469 24.1647 83.0469 23.7207C83.0469 23.2409 82.8678 22.8327 82.5098 22.4961C82.1589 22.1523 81.7148 21.9805 81.1777 21.9805C80.6191 21.9805 80.1608 22.1559 79.8027 22.5068C79.4518 22.8577 79.2155 23.4772 79.0938 24.3652L74.7109 24.0107C74.8828 22.779 75.1979 21.8193 75.6562 21.1318C76.1146 20.4372 76.7591 19.9072 77.5898 19.542C78.4277 19.1696 79.5843 18.9834 81.0596 18.9834C82.5993 18.9834 83.7952 19.1589 84.6475 19.5098C85.5068 19.8607 86.18 20.4014 86.667 21.1318C87.1611 21.8551 87.4082 22.668 87.4082 23.5703C87.4082 24.5299 87.1253 25.4466 86.5596 26.3203C86.001 27.194 84.9805 28.1536 83.498 29.1992C82.6172 29.8079 82.0264 30.234 81.7256 30.4775C81.432 30.721 81.0846 31.0397 80.6836 31.4336H87.5156V35ZM87.2948 27.0615C87.2948 24.068 87.8319 21.9733 88.9061 20.7773C89.9875 19.5814 91.631 18.9834 93.8368 18.9834C94.8967 18.9834 95.7668 19.1159 96.4471 19.3809C97.1275 19.6387 97.6825 19.9788 98.1122 20.4014C98.5418 20.8167 98.8784 21.2572 99.1219 21.7227C99.3726 22.181 99.5731 22.7181 99.7235 23.334C100.017 24.5085 100.164 25.7331 100.164 27.0078C100.164 29.8652 99.6805 31.9564 98.7137 33.2812C97.7469 34.6061 96.0819 35.2686 93.7186 35.2686C92.3937 35.2686 91.3231 35.0573 90.5067 34.6348C89.6903 34.2122 89.0207 33.5928 88.4979 32.7764C88.1183 32.1963 87.8211 31.4049 87.6063 30.4023C87.3986 29.3926 87.2948 28.279 87.2948 27.0615ZM91.6346 27.0723C91.6346 29.0775 91.8101 30.4489 92.161 31.1865C92.5191 31.917 93.0347 32.2822 93.7079 32.2822C94.1519 32.2822 94.535 32.1283 94.8573 31.8203C95.1867 31.5052 95.4266 31.0111 95.577 30.3379C95.7345 29.6647 95.8133 28.6156 95.8133 27.1904C95.8133 25.0993 95.6343 23.6956 95.2762 22.9795C94.9253 22.2562 94.3954 21.8945 93.6864 21.8945C92.9631 21.8945 92.4403 22.2633 92.118 23.001C91.7957 23.7314 91.6346 25.0885 91.6346 27.0723ZM112.683 35H99.5563C99.7067 33.7038 100.161 32.4863 100.921 31.3477C101.687 30.2018 103.119 28.8519 105.217 27.2979C106.499 26.3454 107.319 25.6221 107.677 25.1279C108.035 24.6338 108.215 24.1647 108.215 23.7207C108.215 23.2409 108.035 22.8327 107.677 22.4961C107.327 22.1523 106.882 21.9805 106.345 21.9805C105.787 21.9805 105.328 22.1559 104.97 22.5068C104.619 22.8577 104.383 23.4772 104.261 24.3652L99.8786 24.0107C100.05 22.779 100.366 21.8193 100.824 21.1318C101.282 20.4372 101.927 19.9072 102.757 19.542C103.595 19.1696 104.752 18.9834 106.227 18.9834C107.767 18.9834 108.963 19.1589 109.815 19.5098C110.674 19.8607 111.348 20.4014 111.835 21.1318C112.329 21.8551 112.576 22.668 112.576 23.5703C112.576 24.5299 112.293 25.4466 111.727 26.3203C111.169 27.194 110.148 28.1536 108.666 29.1992C107.785 29.8079 107.194 30.234 106.893 30.4775C106.6 30.721 106.252 31.0397 105.851 31.4336H112.683V35ZM116.706 23.8066L112.57 23.0654C112.914 21.7477 113.572 20.738 114.546 20.0361C115.528 19.3343 116.913 18.9834 118.704 18.9834C120.759 18.9834 122.245 19.3665 123.162 20.1328C124.078 20.8991 124.537 21.8623 124.537 23.0225C124.537 23.7028 124.35 24.3187 123.978 24.8701C123.606 25.4215 123.043 25.9049 122.292 26.3203C122.9 26.4707 123.366 26.6462 123.688 26.8467C124.211 27.1689 124.615 27.5951 124.902 28.125C125.195 28.6478 125.342 29.2744 125.342 30.0049C125.342 30.9215 125.102 31.8024 124.623 32.6475C124.143 33.4854 123.452 34.1335 122.549 34.5918C121.647 35.043 120.462 35.2686 118.994 35.2686C117.561 35.2686 116.43 35.1003 115.599 34.7637C114.776 34.4271 114.095 33.9365 113.558 33.292C113.028 32.6403 112.62 31.8239 112.334 30.8428L116.706 30.2627C116.877 31.1436 117.142 31.7559 117.501 32.0996C117.866 32.4362 118.328 32.6045 118.886 32.6045C119.473 32.6045 119.96 32.3896 120.347 31.96C120.741 31.5303 120.938 30.9574 120.938 30.2412C120.938 29.5107 120.748 28.945 120.369 28.5439C119.996 28.1429 119.488 27.9424 118.843 27.9424C118.5 27.9424 118.027 28.0283 117.425 28.2002L117.651 25.0742C117.894 25.11 118.084 25.1279 118.22 25.1279C118.793 25.1279 119.269 24.9453 119.649 24.5801C120.036 24.2148 120.229 23.7816 120.229 23.2803C120.229 22.8005 120.086 22.4173 119.799 22.1309C119.513 21.8444 119.119 21.7012 118.618 21.7012C118.102 21.7012 117.683 21.8587 117.361 22.1738C117.039 22.4818 116.82 23.026 116.706 23.8066Z" fill="white"/>
</svg>
