<svg width="95" height="34" viewBox="0 0 95 34" fill="none" xmlns="http://www.w3.org/2000/svg">
<path d="M48.6556 10.4676L53.1393 10.1778C53.2416 10.9109 53.4291 11.4564 53.736 11.8485C54.2304 12.4622 54.9123 12.7691 55.8159 12.7691C56.4808 12.7691 57.0093 12.6157 57.3672 12.2918C57.7082 12.0361 57.9128 11.6269 57.9128 11.2007C57.9128 10.7915 57.7253 10.3994 57.4014 10.1437C57.0604 9.83681 56.2591 9.52993 54.9976 9.25721C52.9347 8.79689 51.4515 8.18313 50.5821 7.39892C49.7126 6.66588 49.2182 5.59182 49.2523 4.44959C49.2523 3.66537 49.491 2.88115 49.9342 2.23332C50.4457 1.50025 51.1447 0.920605 51.98 0.596687C52.8836 0.204582 54.1451 0 55.7306 0C57.6741 0 59.1574 0.358015 60.1802 1.09109C61.2031 1.80711 61.8169 2.96639 62.0044 4.55188L57.5718 4.8076C57.4525 4.12568 57.2138 3.63127 56.8217 3.30735C56.4296 2.98344 55.9182 2.83001 55.2533 2.83001C54.7077 2.83001 54.2986 2.94935 54.0258 3.17097C53.7701 3.37555 53.5996 3.68242 53.6166 4.02338C53.6166 4.27911 53.7531 4.51778 53.9576 4.67121C54.1792 4.8758 54.7077 5.06333 55.5431 5.2338C57.6059 5.67706 59.0721 6.1203 59.9756 6.58062C60.8792 7.04094 61.5271 7.60353 61.9191 8.26839C62.3283 8.95033 62.5329 9.73454 62.5158 10.5358C62.5158 11.4905 62.2431 12.4452 61.6975 13.2464C61.1349 14.0818 60.3507 14.7297 59.4301 15.1218C58.4583 15.548 57.2309 15.7696 55.7647 15.7696C53.1734 15.7696 51.3834 15.2752 50.3775 14.2694C49.3716 13.2635 48.775 12.002 48.6556 10.4676ZM1.07404 15.5139V0.272776H8.93326C10.3824 0.272776 11.5076 0.392112 12.2747 0.647836C13.0248 0.886508 13.6897 1.3809 14.133 2.04579C14.6273 2.77886 14.866 3.63127 14.849 4.51778C14.9001 6.01803 14.133 7.45009 12.8203 8.20021C12.3088 8.49001 11.7462 8.69462 11.1666 8.79689C11.5928 8.91624 12.019 9.12078 12.3941 9.35948C12.6839 9.59818 12.9226 9.8709 13.1442 10.1608C13.3999 10.4506 13.6215 10.7745 13.809 11.1154L16.0935 15.531H10.7404L8.21723 10.8426C7.89334 10.246 7.62055 9.85389 7.36484 9.66636C7.02387 9.42766 6.61471 9.30831 6.20556 9.30831H5.7964V15.4969H1.07404V15.5139ZM5.7964 6.44426H7.79107C8.21723 6.41017 8.62638 6.34192 9.03553 6.23965C9.34241 6.18848 9.6152 6.01803 9.80273 5.7623C10.263 5.14857 10.1949 4.27911 9.63228 3.75061C9.3254 3.49489 8.72872 3.3585 7.87626 3.3585H5.7964V6.44426ZM0 28.5728L4.48368 28.283C4.58597 29.0161 4.7735 29.5616 5.08037 29.9538C5.55772 30.5675 6.2567 30.8914 7.16023 30.8914C7.82516 30.8914 8.35366 30.738 8.71164 30.414C9.05261 30.1413 9.25715 29.7492 9.25715 29.3229C9.25715 28.9138 9.06962 28.5217 8.74573 28.266C8.40476 27.9591 7.60354 27.6522 6.32489 27.3794C4.26205 26.9191 2.77886 26.3054 1.9094 25.5212C1.03994 24.7881 0.545543 23.7141 0.57964 22.5718C0.57964 21.7876 0.818314 21.0034 1.26157 20.3556C1.77302 19.6225 2.47199 19.0429 3.30735 18.719C4.21091 18.3268 5.47248 18.1223 7.05796 18.1223C9.00144 18.1223 10.4847 18.4803 11.5076 19.2134C12.5304 19.9464 13.1271 21.0887 13.3146 22.6741L8.88209 22.9299C8.76281 22.248 8.52411 21.7535 8.13197 21.4297C7.75691 21.1057 7.22848 20.9523 6.56356 20.9693C6.01803 20.9693 5.60886 21.0887 5.33609 21.3273C5.06332 21.5319 4.90989 21.8388 4.92694 22.1798C4.92694 22.4355 5.06332 22.6741 5.2679 22.8276C5.48953 23.0322 6.01803 23.2197 6.85339 23.3901C8.91625 23.8335 10.3824 24.2767 11.2859 24.7369C12.1894 25.1973 12.8373 25.7599 13.2294 26.4248C13.6386 27.1067 13.8431 27.8909 13.8431 28.6751C13.8431 29.6298 13.5533 30.5675 13.0248 31.3687C12.4622 32.2041 11.678 32.8519 10.7575 33.244C9.78565 33.6703 8.5582 33.8919 7.09205 33.8919C4.50073 33.8919 2.71067 33.3975 1.70482 32.3917C0.698977 31.3687 0.136386 30.1071 0 28.5728Z" fill="white"/>
<path d="M22.6741 27.3795L26.7998 28.6241C26.5782 29.664 26.1178 30.6528 25.4871 31.5223C24.9075 32.2894 24.1403 32.8861 23.2708 33.2782C22.3843 33.6703 21.2591 33.8749 19.8953 33.8749C18.2416 33.8749 16.8778 33.6362 15.8378 33.1589C14.7808 32.6816 13.8772 31.8291 13.1101 30.6187C12.3429 29.4083 11.9678 27.8569 11.9678 25.9646C11.9678 23.4414 12.6328 21.4979 13.9796 20.1511C15.3264 18.8043 17.2187 18.1223 19.6736 18.1223C21.6001 18.1223 23.1003 18.5145 24.2084 19.2816C25.2995 20.0659 26.1178 21.2592 26.6634 22.8617L22.5037 23.7824C22.4013 23.4243 22.248 23.0663 22.0433 22.7595C21.7876 22.4014 21.4637 22.1287 21.0716 21.9241C20.6795 21.7195 20.2362 21.6343 19.793 21.6343C18.7189 21.6343 17.9006 22.0605 17.338 22.9299C16.9119 23.5608 16.6902 24.5666 16.6902 25.9304C16.6902 27.6182 16.9459 28.7775 17.4574 29.4083C17.9688 30.039 18.6848 30.3459 19.6225 30.3459C20.526 30.3459 21.208 30.0902 21.6683 29.5958C22.1286 29.0673 22.4696 28.3342 22.6741 27.3795ZM32.3064 18.3781H37.0117V23.7141H42.1602V18.3781H46.8997V33.6192H42.1602V27.4477H37.0117V33.6192H32.3064V18.3781Z" fill="white"/>
<path d="M46.2518 25.9986C46.2518 23.5096 46.9508 21.566 48.3317 20.1851C49.7126 18.8042 51.6561 18.1052 54.1281 18.1052C56.6683 18.1052 58.6118 18.7872 59.9927 20.151C61.3736 21.5149 62.0556 23.4243 62.0556 25.8792C62.0556 27.6693 61.7487 29.1184 61.152 30.2607C60.5723 31.3858 59.6688 32.3064 58.5607 32.9202C57.4184 33.5509 56.0034 33.8749 54.3157 33.8749C52.5938 33.8749 51.1787 33.6021 50.0536 33.0565C48.8943 32.4769 47.9396 31.5734 47.3088 30.4652C46.6099 29.2718 46.2518 27.7887 46.2518 25.9986ZM50.9571 26.0156C50.9571 27.55 51.2469 28.6581 51.8095 29.34C52.3721 30.0049 53.1564 30.3459 54.1451 30.3459C55.151 30.3459 55.9352 30.022 56.4978 29.3571C57.0604 28.6922 57.3332 27.5159 57.3332 25.811C57.3332 24.379 57.0434 23.322 56.4637 22.6742C55.8841 22.0093 55.0999 21.6854 54.1111 21.6854C53.2416 21.6513 52.4063 22.0263 51.8266 22.6912C51.2469 23.3561 50.9571 24.4642 50.9571 26.0156ZM66.8802 25.9986C66.8802 23.5096 67.5791 21.566 68.9601 20.1851C70.3409 18.8042 72.2848 18.1052 74.7565 18.1052C77.2968 18.1052 79.2575 18.7872 80.6211 20.151C81.9847 21.5149 82.684 23.4243 82.684 25.8792C82.684 27.6693 82.3767 29.1184 81.7803 30.2607C81.2007 31.3858 80.297 32.3064 79.1889 32.9202C78.0465 33.5509 76.6318 33.8749 74.9441 33.8749C73.2221 33.8749 71.8074 33.6021 70.6818 33.0565C69.5227 32.4769 68.5679 31.5734 67.9372 30.4652C67.2382 29.2718 66.8802 27.7887 66.8802 25.9986ZM71.5855 26.0156C71.5855 27.55 71.8753 28.6581 72.4381 29.34C73.0002 30.0049 73.7849 30.3459 74.7733 30.3459C75.7792 30.3459 76.5639 30.022 77.126 29.3571C77.6888 28.6922 77.9618 27.5159 77.9618 25.811C77.9618 24.379 77.672 23.322 77.0924 22.6742C76.5121 22.0093 75.7281 21.6854 74.7397 21.6854C73.8696 21.6513 73.0177 22.0263 72.4549 22.6912C71.8753 23.3561 71.5855 24.4642 71.5855 26.0156Z" fill="white"/>
<path d="M82.1898 18.3779H86.8945V29.8684H94.2424V33.619H82.1723V18.3779H82.1898Z" fill="white"/>
<path d="M77.0035 17.4985C81.7404 13.9286 83.2013 7.87707 80.2662 3.98201C77.3304 0.0869496 71.1109 -0.176649 66.3738 3.39324C61.6365 6.96315 60.1757 13.0147 63.111 16.9097C66.0462 20.8048 72.2659 21.0684 77.0035 17.4985Z" fill="black"/>
<path d="M77.0035 17.4985C81.7404 13.9286 83.2013 7.87707 80.2662 3.98201C77.3304 0.0869496 71.1109 -0.176649 66.3738 3.39324C61.6365 6.96315 60.1757 13.0147 63.111 16.9097C66.0462 20.8048 72.2659 21.0684 77.0035 17.4985Z" fill="#47ABD7" stroke="white" stroke-miterlimit="10"/>
<path d="M66.8972 9.32547L68.602 8.13204L70.6993 11.1155C71.057 11.5928 71.33 12.1043 71.5344 12.6669C71.6534 13.0931 71.6198 13.5534 71.449 13.9626C71.2278 14.474 70.8694 14.9002 70.392 15.2071C69.8295 15.5992 69.3521 15.8208 68.943 15.889C68.5509 15.9572 68.1417 15.889 67.7666 15.7185C67.3575 15.514 66.9995 15.2242 66.7267 14.8491L68.1929 13.4852C68.3122 13.6728 68.4657 13.8432 68.6361 13.9796C68.7555 14.0648 68.8918 14.116 69.0453 14.116C69.1646 14.116 69.284 14.0648 69.3692 13.9966C69.5397 13.8944 69.659 13.6898 69.642 13.4852C69.5908 13.1954 69.4715 12.9056 69.284 12.6839L66.8972 9.32547ZM72.0118 11.2178L73.563 9.99033C73.7338 10.1949 73.955 10.3483 74.1937 10.4336C74.5346 10.5358 74.893 10.4677 75.1828 10.246C75.3872 10.1097 75.558 9.92215 75.6259 9.68345C75.7281 9.37657 75.558 9.0356 75.2507 8.93333C75.1996 8.91632 75.1485 8.89924 75.0974 8.89924C74.893 8.88216 74.5346 8.96742 74.0061 9.18904C73.1367 9.54709 72.4549 9.68345 71.9432 9.63228C71.449 9.58118 70.9891 9.32547 70.7161 8.89924C70.5117 8.60944 70.4095 8.26847 70.392 7.9275C70.392 7.53536 70.4942 7.14329 70.7161 6.81933C71.0402 6.35908 71.4322 5.96694 71.9096 5.66008C72.6257 5.16568 73.2564 4.927 73.8017 4.927C74.347 4.927 74.8587 5.18273 75.3361 5.71123L73.8017 6.92167C73.4951 6.52953 72.9155 6.44427 72.5228 6.75115L72.4717 6.80232C72.3016 6.90459 72.1819 7.05803 72.114 7.24556C72.0629 7.38192 72.0972 7.53536 72.1819 7.65471C72.2505 7.73997 72.3527 7.80815 72.4717 7.80815C72.6082 7.82523 72.8469 7.75698 73.1878 7.60354C74.0404 7.24556 74.6886 7.04095 75.1317 6.97277C75.5069 6.90459 75.8989 6.93868 76.2566 7.09212C76.5807 7.22848 76.8537 7.46718 77.0406 7.75698C77.2793 8.09795 77.4158 8.5071 77.4333 8.93333C77.4501 9.37657 77.3304 9.8028 77.0924 10.1779C76.7851 10.6382 76.3931 11.0303 75.9325 11.3371C74.9952 11.985 74.228 12.2578 73.6141 12.1554C72.9491 12.0532 72.4038 11.7122 72.0118 11.2178Z" fill="white"/>
</svg>
