<svg width="76" height="76" viewBox="0 0 76 76" fill="none" xmlns="http://www.w3.org/2000/svg">
<g clip-path="url(#id159)" fill="#c1c1c1">
<path d="M73.62 21.38A2.38 2.38 0 0 1 71.25 19V6.83a2.08 2.08 0 0 0-2.08-2.07H57A2.38 2.38 0 1 1 57 0h12.17A6.83 6.83 0 0 1 76 6.84V19a2.38 2.38 0 0 1-2.38 2.38ZM2.38 21.37A2.38 2.38 0 0 1 0 19V6.83A6.83 6.83 0 0 1 6.83 0H19a2.38 2.38 0 0 1 0 4.75H6.83a2.08 2.08 0 0 0-2.08 2.08V19a2.38 2.38 0 0 1-2.37 2.37ZM19 76H6.83A6.83 6.83 0 0 1 0 69.17V57a2.38 2.38 0 1 1 4.75 0v12.17a2.08 2.08 0 0 0 2.08 2.08H19A2.38 2.38 0 1 1 19 76ZM69.17 76H57a2.38 2.38 0 1 1 0-4.75h12.17a2.08 2.08 0 0 0 2.08-2.08V57A2.38 2.38 0 1 1 76 57v12.17A6.83 6.83 0 0 1 69.17 76Z"></path>
<path d="M28.8 35.63H16.32a6.83 6.83 0 0 1-6.83-6.84V16.33a6.83 6.83 0 0 1 6.83-6.83H28.8a6.83 6.83 0 0 1 6.84 6.83V28.8a6.83 6.83 0 0 1-6.84 6.84ZM16.32 14.25a2.08 2.08 0 0 0-2.08 2.08V28.8a2.08 2.08 0 0 0 2.08 2.08H28.8a2.08 2.08 0 0 0 2.08-2.08V16.33a2.08 2.08 0 0 0-2.08-2.08H16.33ZM28.8 66.5H16.32a6.83 6.83 0 0 1-6.83-6.83V47.2a6.83 6.83 0 0 1 6.83-6.84H28.8a6.83 6.83 0 0 1 6.84 6.84v12.46a6.83 6.83 0 0 1-6.84 6.83ZM16.32 45.12a2.08 2.08 0 0 0-2.08 2.08v12.47a2.08 2.08 0 0 0 2.08 2.08H28.8a2.08 2.08 0 0 0 2.08-2.08V47.2a2.08 2.08 0 0 0-2.08-2.08H16.33ZM59.67 35.63H47.2a6.83 6.83 0 0 1-6.84-6.84V16.33a6.83 6.83 0 0 1 6.84-6.83h12.46a6.83 6.83 0 0 1 6.83 6.83V28.8a6.83 6.83 0 0 1-6.83 6.84ZM47.2 14.25a2.08 2.08 0 0 0-2.08 2.08v12.46a2.08 2.08 0 0 0 2.08 2.08h12.46a2.08 2.08 0 0 0 2.08-2.08V16.33a2.08 2.08 0 0 0-2.08-2.08H47.2ZM62.64 52.25H57v-8.02a3.86 3.86 0 0 0-3.86-3.86h-8.91a3.86 3.86 0 0 0-3.86 3.86v8.9A3.86 3.86 0 0 0 44.23 57h8.02v5.64a3.86 3.86 0 0 0 3.86 3.86h6.53a3.86 3.86 0 0 0 3.86-3.86v-6.53a3.86 3.86 0 0 0-3.86-3.86Zm-17.52-7.13h7.13v7.13h-7.13v-7.13Zm16.63 16.63H57V57h4.75v4.75Z"></path>
<path d="M23.75 26.12h-2.38A2.38 2.38 0 0 1 19 23.75v-2.38A2.38 2.38 0 0 1 21.37 19h2.38a2.38 2.38 0 0 1 2.38 2.37v2.38a2.38 2.38 0 0 1-2.38 2.37ZM54.63 26.12h-2.38a2.38 2.38 0 0 1-2.37-2.37v-2.38A2.38 2.38 0 0 1 52.25 19h2.38A2.38 2.38 0 0 1 57 21.37v2.38a2.38 2.38 0 0 1-2.37 2.37ZM23.75 57h-2.38A2.38 2.38 0 0 1 19 54.63v-2.38a2.38 2.38 0 0 1 2.37-2.37h2.38a2.38 2.38 0 0 1 2.38 2.37v2.38A2.37 2.37 0 0 1 23.75 57Z"></path>
</g>
<defs>
<clipPath id="id159">
<path fill="#fff" d="M0 0h76v76H0z"></path>
</clipPath>
</defs>
</svg>